<svg width="808" height="453" viewBox="0 0 808 453" fill="none" xmlns="http://www.w3.org/2000/svg">
<g clip-path="url(#clip0_313_23)">
<path fill-rule="evenodd" clip-rule="evenodd" d="M720.004 396.336L726.459 421.056L721.904 428.884L743.351 428.083L747.814 421.079L743.923 389.332L720.004 396.336Z" fill="#F6CBAD"/>
<path fill-rule="evenodd" clip-rule="evenodd" d="M747.814 421.079C740.673 426.664 733.463 426.847 726.459 421.559L691.622 433.988C687.456 435.476 688.303 441.175 691.645 441.106L753.216 439.71C753.445 425.862 747.951 427.327 747.814 421.079Z" fill="#003366"/>
<path fill-rule="evenodd" clip-rule="evenodd" d="M576.582 375.713L570.082 400.41L562.277 405.011L581.343 414.853L588.668 410.916L600.867 381.367L576.582 375.713Z" fill="#F6CBAD"/>
<path fill-rule="evenodd" clip-rule="evenodd" d="M588.668 410.916C579.718 412.289 573.332 408.902 569.83 400.845L533.391 394.573C529.042 393.818 526.959 399.197 529.935 400.776L584.25 429.777C591.231 417.851 585.715 416.432 588.668 410.916Z" fill="#003366"/>
<path fill-rule="evenodd" clip-rule="evenodd" d="M650.124 164.426L593.222 114.711C589.789 114.436 581.252 123.065 580.084 125.286C588.942 140.209 611.213 186.262 630.188 199.72C682.924 237.121 710.07 123.958 687.433 116.061C659.234 106.219 662.942 176.282 650.124 164.426Z" fill="#F6CBAD"/>
<path fill-rule="evenodd" clip-rule="evenodd" d="M741.497 205.511L738.636 308.855L748.707 397.48C744.953 406.933 722.201 407.803 710.688 401.234L696.68 319.406L695.673 255.569L641.358 297.341L601.485 396.336C589.675 400.708 574.499 387.432 569.738 381.756L600.135 272.85L670.289 197.981L741.497 205.511Z" fill="#3399FF"/>
<path fill-rule="evenodd" clip-rule="evenodd" d="M618.194 268.593C626.594 274.407 635.452 279.557 644.654 283.997C647.881 285.165 651.131 286.263 654.404 287.293L695.673 255.546L696.314 295.533C699.29 295.716 702.288 295.877 705.264 295.968C716.456 296.334 727.718 296.563 738.979 296.472L741.52 205.466L670.335 197.935L610.595 261.681C613.067 264.084 615.585 266.373 618.194 268.593Z" fill="#0066CC"/>
<path fill-rule="evenodd" clip-rule="evenodd" d="M737.812 203.68C732.89 215.88 668.596 220.686 668.206 204.733C668.023 196.676 678.094 183.217 676.996 174.268C674.364 152.798 667.794 129.818 678.712 116.542C680.864 113.933 685.579 110.499 688.646 109.996C690.935 109.172 709.956 110.568 711.787 112.124C741.497 137.691 738.956 200.842 737.812 203.68Z" fill="#4A3469"/>
<path fill-rule="evenodd" clip-rule="evenodd" d="M721.858 123.889C721.904 133.549 719.729 142.59 715.289 151.036C712.245 160.42 707.026 168.546 699.633 175.389C692.766 182.76 684.664 187.978 675.279 191.045C674.089 191.663 672.876 192.259 671.663 192.785C669.763 197.225 668.115 201.437 668.207 204.733C668.596 220.664 732.868 215.88 737.812 203.68C738.796 201.231 740.856 153.187 721.858 123.889Z" fill="#4A3469"/>
<path fill-rule="evenodd" clip-rule="evenodd" d="M690.569 111.85C690.569 111.85 695.17 109.859 687.25 98.7117C686.037 96.995 682.855 98.1395 682.489 96.7432C681.505 93.0352 685.19 87.4503 683.611 83.1243C682.489 80.103 687.822 78.1117 691.805 77.1503C698.374 75.571 709.75 79.6452 705.721 94.4086C704.76 97.9563 700.182 101.756 700.32 111.804C700.411 118.717 688.646 116.084 690.569 111.85Z" fill="#F6CBAD"/>
<path fill-rule="evenodd" clip-rule="evenodd" d="M683.519 83.3762C686.083 85.2073 694.712 76.0517 697.573 87.7937C697.779 88.6864 697.939 91.7535 701.945 89.9453C705.95 88.137 705.492 94.523 701.967 93.6533C698.443 92.7835 701.304 100.955 702.837 100.222C703.501 99.9248 704.508 95.8964 707.392 93.5617C711.833 89.9453 716.685 81.5222 707.53 75.1133C698.603 60.2813 684.183 66.7588 680.017 72.8702C677.019 77.2419 678.049 80.1946 683.519 83.3762Z" fill="#003366"/>
<path d="M695.604 95.5986C695.604 95.5986 697.069 103.656 689.997 97.6815" stroke="#00347F" stroke-width="0.10584" stroke-miterlimit="10" stroke-linecap="round" stroke-linejoin="round"/>
<path d="M573.55 95.2957L563.553 104.064L565.318 106.078L575.316 97.309L573.55 95.2957Z" fill="#3399FF"/>
<path fill-rule="evenodd" clip-rule="evenodd" d="M567.221 102.694C568.274 103.885 568.136 105.693 566.946 106.746C565.756 107.799 563.948 107.661 562.895 106.471C561.842 105.281 561.979 103.473 563.169 102.42C564.36 101.39 566.168 101.504 567.221 102.694Z" fill="#003366"/>
<path d="M579.968 102.62L569.97 111.389L571.736 113.402L581.734 104.633L579.968 102.62Z" fill="#3399FF"/>
<path fill-rule="evenodd" clip-rule="evenodd" d="M573.63 109.996C574.682 111.186 574.545 112.994 573.355 114.047C572.165 115.1 570.356 114.963 569.304 113.773C568.251 112.582 568.388 110.774 569.578 109.721C570.768 108.691 572.577 108.806 573.63 109.996Z" fill="#003366"/>
<path d="M579.077 94.093L589.075 85.3242L587.309 83.3109L577.311 92.0797L579.077 94.093Z" fill="#3399FF"/>
<path fill-rule="evenodd" clip-rule="evenodd" d="M585.417 86.7178C586.47 87.908 588.278 88.0225 589.469 86.9925C590.659 85.9396 590.773 84.1314 589.743 82.9411C588.69 81.7509 586.882 81.6365 585.692 82.6665C584.502 83.7194 584.387 85.5276 585.417 86.7178Z" fill="#003366"/>
<path d="M585.503 101.414L595.501 92.6453L593.735 90.6319L583.738 99.4007L585.503 101.414Z" fill="#3399FF"/>
<path fill-rule="evenodd" clip-rule="evenodd" d="M591.826 94.0193C592.879 95.2096 594.687 95.324 595.878 94.294C597.068 93.2411 597.182 91.4329 596.152 90.2427C595.099 89.0524 593.291 88.938 592.101 89.968C590.911 91.0209 590.796 92.852 591.826 94.0193ZM644.768 220.366C644.768 220.366 664.018 227.782 668.275 237.029C672.532 246.276 681.047 268.868 697.985 268.456C714.923 268.021 737.697 252.914 735.408 229.132C733.371 208.052 712.039 205.008 709.178 203.337C703.936 200.27 697.893 191.572 695.742 181.455C693.59 171.315 678.964 156.002 672.807 155.865C666.673 155.728 666.65 159.825 670.038 162.869C673.425 165.913 680.063 174.291 673.334 178.983C666.627 183.675 648.614 196.333 648.614 196.333C648.614 196.333 639.801 201.643 634.674 194.135C629.524 186.628 620.186 176.534 617.05 181.707C613.914 186.834 620.643 209.059 644.768 220.366Z" fill="#003366"/>
<path d="M673.311 217.23L685.076 206.93L596.839 106.311L586.653 115.512L673.311 217.23Z" fill="#3399FF"/>
<path d="M586.058 116.061L597.114 106.036C598.029 105.189 598.006 103.747 597.022 102.946L573.309 83.6966C572.531 83.0557 571.409 83.1015 570.654 83.7652L567.152 86.9468C566.42 87.6106 566.259 88.6864 566.786 89.5332L582.922 115.627C583.632 116.702 585.12 116.908 586.058 116.061Z" fill="#003366"/>
<path fill-rule="evenodd" clip-rule="evenodd" d="M694.048 212.286L677.454 226.844C676.79 227.416 675.783 227.37 675.188 226.706L672.784 223.96C672.212 223.296 672.258 222.289 672.922 221.694L689.516 207.136C690.18 206.564 691.187 206.61 691.782 207.274L694.185 210.02C694.78 210.684 694.712 211.691 694.048 212.286ZM717.463 235.473L697.39 253.074C696.726 253.647 695.719 253.601 695.124 252.937L690.271 247.398C689.699 246.734 689.745 245.727 690.409 245.132L710.482 227.53C711.146 226.958 712.153 227.004 712.748 227.668L717.601 233.207C718.196 233.871 718.127 234.878 717.463 235.473Z" fill="#3399FF"/>
<path d="M589.606 112.857L695.467 238.654" stroke="#E2480D" stroke-width="0.03968" stroke-miterlimit="10" stroke-linecap="round" stroke-linejoin="round"/>
<path d="M592.582 110.156L699.999 235.77" stroke="#E2480D" stroke-width="0.03968" stroke-miterlimit="10" stroke-linecap="round" stroke-linejoin="round"/>
<path d="M595.58 107.432L705.607 231.811" stroke="#E2480D" stroke-width="0.03968" stroke-miterlimit="10" stroke-linecap="round" stroke-linejoin="round"/>
<path d="M573.332 83.7195L595.031 101.71" stroke="white" stroke-width="0.10584" stroke-miterlimit="10" stroke-linecap="round" stroke-linejoin="round"/>
<path fill-rule="evenodd" clip-rule="evenodd" d="M710.093 207.251L697.115 218.855C693.682 219.29 684.183 221.373 683.817 222.472C683.359 223.799 692.377 224.189 691.805 224.967C689.47 229.819 680.017 231.582 682.512 235.61C683.016 236.434 688.761 237.693 690.958 238.311C695.582 239.616 699.496 238.86 704.691 228.469L729.114 218.604L710.093 207.251Z" fill="#F6CBAD"/>
<path fill-rule="evenodd" clip-rule="evenodd" d="M737.949 180.814L707.072 209.974C704.462 216.04 715.335 224.349 720.004 222.106C738.384 215.33 762.944 205.442 775.281 185.689C799.772 146.504 723.872 99.8789 711.787 112.17C702.86 128.971 751.568 169.873 737.949 180.814ZM600.432 131.694L586.653 111.896C583.174 107.455 583.678 101.847 582.144 100.726C580.061 95.9878 573.515 90.2427 570.608 93.5387C568.617 95.9878 572.165 101.573 571.478 103.884C566.511 103.884 571.02 110.98 575.873 118.144L586.836 137.371L600.432 131.694Z" fill="#F6CBAD"/>
<path d="M688.646 110.042C688.646 110.042 683.84 114.574 687.296 119.38C690.752 124.187 709.223 120.845 703.913 110.545" stroke="white" stroke-width="0.03968" stroke-miterlimit="10" stroke-linecap="round" stroke-linejoin="round"/>
<path d="M600.432 131.695L652.917 193.289" stroke="#00347F" stroke-width="0.10584" stroke-miterlimit="10" stroke-linecap="round" stroke-linejoin="round"/>
<path fill-rule="evenodd" clip-rule="evenodd" d="M770.543 192.144C770.543 192.144 758.64 166.943 779.401 162.48C779.401 162.48 784.848 179.509 770.543 192.144Z" fill="#F4BE99"/>
<path d="M739.254 179.418L747.562 169.621" stroke="#00347F" stroke-width="0.10584" stroke-miterlimit="10" stroke-linecap="round" stroke-linejoin="round"/>
<path d="M652.917 165.776L662.85 170.995" stroke="#00347F" stroke-width="0.10584" stroke-miterlimit="10" stroke-linecap="round" stroke-linejoin="round"/>
<path d="M685.9 236.983L690.844 234.603" stroke="#00347F" stroke-width="0.10584" stroke-miterlimit="10" stroke-linecap="round" stroke-linejoin="round"/>
<path d="M689.424 237.922L694.048 236.983" stroke="#00347F" stroke-width="0.10584" stroke-miterlimit="10" stroke-linecap="round" stroke-linejoin="round"/>
<path d="M571.478 103.907L574.339 109.035" stroke="#00347F" stroke-width="0.10584" stroke-miterlimit="10" stroke-linecap="round" stroke-linejoin="round"/>
<path d="M674.272 155.842C674.272 155.842 685.579 159.665 694.62 177.976C694.62 177.976 696.062 189.695 702.036 196.127C706.683 202.421 709.292 203.749 712.748 204.619" stroke="white" stroke-width="0.10584" stroke-miterlimit="10" stroke-linecap="round" stroke-linejoin="round"/>
<path d="M573.881 385.99C573.881 385.99 581.801 394.871 594.39 397.091" stroke="#00347F" stroke-width="0.10584" stroke-miterlimit="10" stroke-linecap="round" stroke-linejoin="round"/>
<path d="M641.358 297.341L642.525 287.339" stroke="#00347F" stroke-width="0.10584" stroke-miterlimit="10" stroke-linecap="round" stroke-linejoin="round"/>
<path d="M752.277 431.081C752.277 431.081 743.305 431.699 744.129 439.916" stroke="white" stroke-width="0.10584" stroke-miterlimit="10" stroke-linecap="round" stroke-linejoin="round"/>
<path d="M744.838 435.499L688.852 437.307" stroke="white" stroke-width="0.10584" stroke-miterlimit="10" stroke-linecap="round" stroke-linejoin="round"/>
<path d="M574.728 424.741C574.728 424.741 579.214 415.768 587.889 420.346" stroke="white" stroke-width="0.10584" stroke-miterlimit="10" stroke-linecap="round" stroke-linejoin="round"/>
<path d="M529.271 396.221L578.39 420.598" stroke="white" stroke-width="0.10584" stroke-miterlimit="10" stroke-linecap="round" stroke-linejoin="round"/>
<path d="M713.389 426.229C713.389 426.229 727.809 406.773 732.684 417.874C737.537 428.884 713.389 426.229 713.389 426.229ZM713.389 426.229C713.389 426.229 689.379 423.07 696.703 413.411C703.982 403.821 713.389 426.229 713.389 426.229ZM558.798 400.25C558.798 400.25 582.991 398.945 577.544 409.795C572.142 420.552 558.798 400.25 558.798 400.25ZM558.798 400.25C558.798 400.25 545.911 379.742 558.019 379.238C570.036 378.734 558.798 400.25 558.798 400.25Z" stroke="#E2480D" stroke-width="0.10584" stroke-miterlimit="10" stroke-linecap="round" stroke-linejoin="round"/>
<path d="M738.842 310.823L733.325 301.713" stroke="#00347F" stroke-width="0.10584" stroke-miterlimit="10" stroke-linecap="round" stroke-linejoin="round"/>
<path d="M691.622 110.614C691.622 110.614 689.653 112.216 690.477 113.406C691.301 114.596 693.361 117.938 699.312 114.711" stroke="#00347F" stroke-width="0.10584" stroke-miterlimit="10" stroke-linecap="round" stroke-linejoin="round"/>
<path d="M662.85 228.835L623.138 265.663C623.138 265.663 613.731 272.827 608.718 293.496C603.706 314.165 581.32 389.95 581.32 389.95" stroke="white" stroke-width="0.05288" stroke-miterlimit="10" stroke-linecap="round" stroke-linejoin="round"/>
<path d="M673.15 247.535L635.864 271.935C635.864 271.935 624.809 279.854 619.796 303.27C614.784 326.685 598.464 397.068 598.464 397.068M706.683 265.64L705.607 310.823C705.607 310.823 705.904 324.808 709.658 337.351C713.412 349.894 727.283 405.469 727.283 405.469M727.283 257.515L722.247 310.823C722.247 310.823 722.979 328.127 727.283 344.355C731.586 360.583 739.254 405.469 739.254 405.469" stroke="white" stroke-width="0.05288" stroke-miterlimit="10" stroke-linecap="round" stroke-linejoin="round"/>
<path d="M722.247 404.942C722.247 404.942 736.85 407.666 745.411 401.463" stroke="#00347F" stroke-width="0.10584" stroke-miterlimit="10" stroke-linecap="round" stroke-linejoin="round"/>
<path d="M705.607 75.6625C705.607 75.6625 694.78 60.1896 680.154 75.6625" stroke="white" stroke-width="0.05288" stroke-miterlimit="10" stroke-linecap="round" stroke-linejoin="round"/>
<path d="M697.71 187.978L708.01 189.695" stroke="#00347F" stroke-width="0.10584" stroke-miterlimit="10" stroke-linecap="round" stroke-linejoin="round"/>
<path opacity="0.85" d="M205.799 161.001C235.279 131.521 235.278 83.7251 205.797 54.2459C176.317 24.7667 128.521 24.7675 99.042 54.2478C69.5628 83.728 69.5636 131.524 99.0438 161.003C128.524 190.483 176.32 190.482 205.799 161.001Z" stroke="white" stroke-width="0.05288" stroke-miterlimit="10"/>
<path opacity="0.5" d="M18.1849 205.855C28.1714 205.855 36.2671 197.759 36.2671 187.772C36.2671 177.786 28.1714 169.69 18.1849 169.69C8.19838 169.69 0.102684 177.786 0.102684 187.772C0.102684 197.759 8.19838 205.855 18.1849 205.855Z" fill="#3399FF"/>
<path fill-rule="evenodd" clip-rule="evenodd" d="M85.1349 186.697L72.4544 208.556L72.2484 208.922C69.1813 212.035 65.5649 211.829 61.834 209.654C57.6911 207.251 55.7227 202.948 57.3935 200.041C59.0873 197.134 63.8024 196.722 67.9224 199.125C70.0053 200.338 71.5618 202.032 72.34 203.795L83.9904 183.721L85.0204 181.959L86.7142 179.029C87.6069 177.495 89.5982 178.388 89.0031 180.036C86.4167 188.184 93.7411 193.655 88.6827 201.437C91.2004 194.96 85.318 192.213 85.1349 186.697ZM361.701 61.9293L372.345 77.8142L372.528 78.0888C373.626 81.2017 372.276 83.6051 369.575 85.4133C366.577 87.4275 362.983 87.3588 361.587 85.2302C360.168 83.1244 361.472 79.7826 364.471 77.7684C365.982 76.7613 367.652 76.2577 369.117 76.3035L359.344 61.7233L358.497 60.4415L357.078 58.3128C356.322 57.1913 357.604 56.1384 358.52 57.0997C363.212 61.5631 369.346 58.3815 372.963 64.4242C369.346 60.5559 365.524 63.646 361.701 61.9293ZM789.998 94.4773L774.296 105.372L774.045 105.556C770.955 106.7 768.528 105.395 766.674 102.717C764.614 99.7417 764.637 96.1711 766.72 94.7291C768.803 93.2871 772.168 94.5231 774.228 97.4986C775.281 99.0093 775.784 100.657 775.761 102.122L790.181 92.1197L791.44 91.25L793.546 89.7851C794.645 89.0069 795.72 90.2657 794.782 91.2042C790.387 95.9651 793.66 102.054 787.686 105.762C791.486 102.076 788.327 98.3226 789.998 94.4773Z" fill="#4A3469"/>
<path fill-rule="evenodd" clip-rule="evenodd" d="M672.716 33.3639L657.014 44.259L656.762 44.4421C653.672 45.5865 651.246 44.2819 649.392 41.6039C647.332 38.6283 647.355 35.0577 649.438 33.6157C651.52 32.1737 654.885 33.4097 656.945 36.3852C657.998 37.8959 658.502 39.5439 658.479 41.0088L672.899 31.0063L674.158 30.1365L676.263 28.6717C677.362 27.8934 678.438 29.1523 677.499 30.0908C673.105 34.8516 676.378 40.9401 670.404 44.6481C674.203 40.963 671.068 37.1863 672.716 33.3639ZM403.153 88.4803L402.512 99.7874C402.512 99.8103 402.512 99.8561 402.512 99.879C402.512 99.9019 402.512 99.9477 402.512 99.9705C401.986 101.664 400.612 102.259 398.873 102.145C396.927 102.031 395.417 100.84 395.485 99.467C395.554 98.0937 397.202 97.0865 399.148 97.201C400.132 97.2468 401.002 97.5901 401.62 98.0937L402.146 88.6634L402.192 87.8394L402.26 86.4661C402.283 86.1457 402.535 85.8481 402.833 85.8023L414.254 83.8796C414.552 83.8339 414.781 84.0399 414.781 84.3603L414.689 85.9396L414.643 86.5805L414.002 97.8419C414.002 97.8648 414.002 97.9105 414.002 97.9334C414.002 97.9563 414.002 98.0021 414.002 98.025C413.453 99.7188 412.103 100.314 410.363 100.199C408.418 100.085 406.907 98.8948 406.976 97.5214C407.044 96.1481 408.692 95.141 410.638 95.2554C411.622 95.3012 412.492 95.6445 413.11 96.1481L413.636 86.7408L403.153 88.4803ZM98.2502 141.972L105.483 150.669C105.506 150.692 105.529 150.715 105.529 150.738C105.552 150.761 105.575 150.784 105.575 150.807C107.017 151.86 108.459 151.516 109.809 150.395C111.297 149.159 111.8 147.282 110.931 146.229C110.061 145.176 108.138 145.336 106.65 146.572C105.895 147.213 105.392 147.991 105.186 148.747L99.1429 141.491L98.6165 140.85L97.7238 139.797C97.5178 139.545 97.1287 139.477 96.854 139.614L86.5311 144.856C86.2565 144.993 86.1878 145.313 86.3938 145.542L87.4009 146.755L87.8129 147.236L95.0229 155.911C95.0458 155.934 95.0687 155.957 95.0687 155.98C95.0916 156.003 95.1145 156.025 95.1145 156.048C96.5565 157.101 97.9985 156.758 99.3489 155.636C100.837 154.4 101.34 152.523 100.47 151.471C99.6007 150.418 97.678 150.578 96.1902 151.814C95.4349 152.455 94.9313 153.233 94.7253 153.988L88.7056 146.755L98.2502 141.972Z" fill="#4A3469"/>
<path fill-rule="evenodd" clip-rule="evenodd" d="M388.527 124.828L393.54 137.966C393.563 137.989 393.563 138.035 393.586 138.058C393.608 138.081 393.608 138.126 393.631 138.149C393.883 140.347 392.647 141.697 390.61 142.475C388.344 143.345 386.032 142.75 385.437 141.171C384.842 139.591 386.17 137.6 388.436 136.753C389.58 136.318 390.724 136.249 391.686 136.501L387.52 125.537L387.154 124.576L386.536 122.974C386.398 122.608 386.536 122.127 386.856 121.921L398.804 113.933C399.125 113.727 399.491 113.841 399.628 114.207L400.315 116.039L400.59 116.771L405.579 129.863C405.602 129.886 405.602 129.932 405.625 129.955C405.648 129.978 405.648 130.024 405.671 130.047C405.923 132.244 404.687 133.594 402.65 134.373C400.384 135.242 398.072 134.647 397.477 133.068C396.882 131.489 398.209 129.497 400.475 128.65C401.62 128.215 402.764 128.147 403.725 128.399L399.56 117.481L388.527 124.828ZM639.366 105.487L644.379 118.625C644.402 118.648 644.402 118.694 644.425 118.717C644.448 118.739 644.448 118.785 644.471 118.808C644.722 121.005 643.486 122.356 641.449 123.134C639.183 124.004 636.872 123.409 636.276 121.829C635.681 120.25 637.009 118.259 639.275 117.412C640.419 116.977 641.564 116.908 642.525 117.16L638.359 106.196L637.993 105.235L637.375 103.633C637.238 103.267 637.375 102.786 637.696 102.58L649.644 94.5917C649.964 94.3857 650.33 94.5002 650.468 94.8664L651.154 96.6975L651.429 97.4299L656.419 110.522C656.442 110.545 656.442 110.591 656.464 110.614C656.487 110.637 656.487 110.683 656.51 110.705C656.762 112.903 655.526 114.253 653.489 115.031C651.223 115.901 648.911 115.306 648.316 113.727C647.721 112.147 649.048 110.156 651.314 109.309C652.459 108.874 653.603 108.806 654.565 109.057L650.399 98.1395L639.366 105.487Z" fill="#003366"/>
<path opacity="0.85" d="M232.308 330.183C249.953 312.538 249.953 283.93 232.307 266.285C214.662 248.64 186.054 248.641 168.409 266.286C150.765 283.931 150.765 312.539 168.41 330.184C186.056 347.829 214.664 347.828 232.308 330.183Z" stroke="white" stroke-width="0.05288" stroke-miterlimit="10"/>
<path opacity="0.5" d="M276.703 163.753C282.151 163.753 286.568 159.336 286.568 153.888C286.568 148.439 282.151 144.023 276.703 144.023C271.255 144.023 266.838 148.439 266.838 153.888C266.838 159.336 271.255 163.753 276.703 163.753Z" fill="#94CAFF"/>
<path opacity="0.5" fill-rule="evenodd" clip-rule="evenodd" d="M571.885 225.057C566.712 223.363 563.897 217.778 565.59 212.605C567.284 207.432 572.869 204.617 578.042 206.311C583.215 208.004 586.03 213.589 584.336 218.762C582.643 223.958 577.058 226.773 571.885 225.057Z" fill="#C5E3FF"/>
<path opacity="0.5" fill-rule="evenodd" clip-rule="evenodd" d="M103.08 440.054C103.08 369.853 160.004 312.929 230.205 312.929C300.405 312.929 357.33 369.853 357.33 440.054H307.111C307.111 397.572 272.664 363.124 230.182 363.124C187.7 363.124 153.275 397.572 153.275 440.054H103.08Z" fill="#94CAFF"/>
<path fill-rule="evenodd" clip-rule="evenodd" d="M311.186 357.928C309.148 377.956 309.171 401.829 307.798 422.727C309.744 434.286 316.496 430.623 329.817 434.881C304.433 437.902 281.888 439.436 286.946 423.505C286.351 404.37 284.932 388.21 282.002 358.043L311.186 357.928Z" fill="#F6CBAD"/>
<path fill-rule="evenodd" clip-rule="evenodd" d="M305.875 255.409C319.334 265.778 322.79 354.083 317.205 405.903C307.661 408.536 285.138 412.862 275.09 407.78C273.488 365.71 272.229 334.33 274.426 302.514C253.757 302.491 244.785 301.736 224.963 296.792C200.22 290.612 196.077 290.2 199.923 263.374C206.217 262.207 289.67 242.935 305.875 255.409Z" fill="#4A3469"/>
<path fill-rule="evenodd" clip-rule="evenodd" d="M248.264 301.347C252.43 296.06 256.618 290.795 260.738 285.462C270.192 276.078 281.316 269.6 294.133 266.007C299.695 265.251 305.257 264.519 310.842 263.763C309.377 259.712 307.729 256.828 305.875 255.409C289.67 242.935 206.217 262.207 199.923 263.351C196.077 290.177 200.197 290.589 224.963 296.769C234.348 299.127 241.329 300.523 248.264 301.347Z" fill="#4A3469"/>
<path fill-rule="evenodd" clip-rule="evenodd" d="M174.539 222.403L136.475 235.862C126.381 239.433 115.188 233.39 113.151 222.884C112.464 219.336 112.853 215.514 115.211 211.714C123.909 197.66 157.738 186.742 157.738 186.742L174.562 197.203V222.403H174.539Z" fill="#F6CBAD"/>
<path fill-rule="evenodd" clip-rule="evenodd" d="M218.28 208.372C227.87 200.087 230.044 156.918 215.464 157.765C206.126 158.314 194.269 166.554 185.64 170.377C167.832 178.228 158.471 184.499 158.059 184.751C155.152 191.595 162.019 220.961 174.539 222.403L218.28 208.372Z" fill="#0066CC"/>
<path fill-rule="evenodd" clip-rule="evenodd" d="M162.751 128.788C163.415 130.802 168.038 126.155 168.977 128.055C169.618 129.978 164.674 135.013 161.172 137.852L147.324 206.221C142.014 225.837 111.457 228.057 112.853 217.986C118.553 176.969 146.202 133.915 146.202 133.915C146.34 126.018 143.593 126.865 145.745 124.485C153.184 116.29 164.559 119.472 165.154 120.525C166.505 122.882 163.644 125.743 162.751 128.788ZM279.69 222.403L317.755 235.862C327.849 239.433 339.041 233.39 341.078 222.884C341.765 219.336 341.376 215.514 339.018 211.714C330.321 197.66 296.491 186.742 296.491 186.742L279.668 197.203V222.403H279.69Z" fill="#F6CBAD"/>
<path fill-rule="evenodd" clip-rule="evenodd" d="M260.99 441.106H264.95L246.135 397.389H242.153L260.99 441.106Z" fill="#003366"/>
<path fill-rule="evenodd" clip-rule="evenodd" d="M195.757 441.106H191.774L210.612 397.389H214.572L195.757 441.106Z" fill="#003366"/>
<path fill-rule="evenodd" clip-rule="evenodd" d="M212.168 393.727H244.327L246.135 397.389H210.658L212.168 393.727Z" fill="#003366"/>
<path fill-rule="evenodd" clip-rule="evenodd" d="M235.95 208.372C226.359 200.087 224.185 156.918 238.765 157.765C248.104 158.314 259.96 166.554 268.589 170.377C286.397 178.228 295.758 184.499 296.17 184.751C299.077 191.595 292.211 220.961 279.69 222.403L235.95 208.372Z" fill="#0066CC"/>
<path fill-rule="evenodd" clip-rule="evenodd" d="M286.923 423.505C294.042 428.586 301.137 428.609 307.867 423.505L342.314 434.423C346.434 435.728 345.725 441.084 342.429 441.084H282.002C281.499 428.128 286.923 429.387 286.923 423.505Z" fill="#4A3469"/>
<path d="M198.916 271.546C198.916 271.546 284.52 264.221 286.923 264.61C289.327 265.022 305.738 263.351 307.775 286.744C309.812 310.159 307.775 408.055 307.775 408.055" stroke="white" stroke-width="0.03968" stroke-miterlimit="10" stroke-linecap="round" stroke-linejoin="round"/>
<path d="M200.22 285.554L278.615 290.521C278.615 290.521 292.691 288.461 292.691 315.401C292.691 342.364 288.732 410.138 288.732 410.138" stroke="white" stroke-width="0.03968" stroke-miterlimit="10" stroke-linecap="round" stroke-linejoin="round"/>
<path fill-rule="evenodd" clip-rule="evenodd" d="M85.0433 323.641C79.8705 343.096 71.4244 365.413 65.3131 385.441C59.4078 395.581 54.3951 389.744 40.4329 389.034C63.0929 400.845 83.67 410.23 84.5398 393.566C91.8642 375.873 98.8911 361.27 112.304 334.078L85.0433 323.641Z" fill="#F6CBAD"/>
<path fill-rule="evenodd" clip-rule="evenodd" d="M84.5398 393.543C76.0938 395.787 69.456 393.292 64.9469 386.128L28.874 384.159C24.5709 383.93 23.312 389.195 26.402 390.362L82.9147 411.717C87.996 399.792 82.4569 399.037 84.5398 393.543ZM126.266 229.613C110.015 234.557 74.5602 321.375 61.4907 371.822C69.4789 377.659 87.8816 383.243 99.0742 382.03C115.44 343.234 131.142 315.813 140.343 285.279C159.684 292.558 175.248 303.773 195.551 306.154C220.889 309.129 216.677 300.958 222.56 274.498C217.066 271.202 145.836 223.685 126.266 229.613Z" fill="#4A3469"/>
<path fill-rule="evenodd" clip-rule="evenodd" d="M126.266 229.613C124.298 230.208 122.032 232.04 119.56 234.832C125.557 239.066 130.569 244.285 134.598 250.488C141.281 257.79 145.813 266.373 148.148 276.238C149.201 280.61 149.956 285.073 150.574 289.559C165.498 296.334 178.956 304.185 195.551 306.154C220.889 309.129 216.677 300.958 222.56 274.498C217.066 271.202 145.836 223.685 126.266 229.613Z" fill="#4A3469"/>
<path d="M220.66 282.83L144.486 243.278C144.486 243.278 125.488 234.878 115.463 256.004L68.4031 375.69" stroke="white" stroke-width="0.03968" stroke-miterlimit="10" stroke-linecap="round" stroke-linejoin="round"/>
<path d="M217.021 300.065L148.903 270.882C148.903 270.882 126.999 259.529 119.972 281.502C112.945 303.476 87.8587 381.069 87.8587 381.069" stroke="white" stroke-width="0.03968" stroke-miterlimit="10" stroke-linecap="round" stroke-linejoin="round"/>
<path fill-rule="evenodd" clip-rule="evenodd" d="M183.58 251.22C189.852 241.607 193.262 232.932 198.229 219.084C198.755 214.69 194.864 185.941 203.654 168.729C209.742 161.198 208.666 161.359 215.075 157.765C216.7 156.849 225.993 155.453 230.64 155.865C235.698 156.323 243.709 159.573 246.021 161.885C268.704 180.471 250.164 243.759 256.824 255.913C248.516 271.546 197.542 271.569 183.58 251.22Z" fill="#3399FF"/>
<path fill-rule="evenodd" clip-rule="evenodd" d="M236.957 157.033C236.957 157.033 230.662 155.934 235.378 145.039C236.11 143.345 238.994 143.757 239.063 142.521C239.223 139.179 235.103 135.105 235.675 131.145C236.087 128.376 231.189 127.643 227.641 127.529C221.782 127.346 212.832 132.862 218.92 144.696C220.385 147.534 221.392 151.31 223.063 159.871C223.91 167.172 241.329 166.142 236.957 157.033Z" fill="#F6CBAD"/>
<path fill-rule="evenodd" clip-rule="evenodd" d="M236.041 130.275C233.684 131.672 224.368 125.743 224.345 136.707C224.345 137.531 224.872 140.278 220.958 139.545C217.044 138.813 218.806 144.329 221.736 142.819C224.437 145.382 224.322 150.074 223.567 154.057C214.938 147.877 202.624 135.631 215.075 126.384C216.929 114.871 234.622 119.014 240.962 115.741C243.434 122.333 242.015 125.354 236.041 130.275Z" fill="#003366"/>
<path d="M226.176 145.062C226.52 145.268 228.282 151.402 233.432 145.748" stroke="#00347F" stroke-width="0.10584" stroke-miterlimit="10" stroke-linecap="round" stroke-linejoin="round"/>
<path d="M257.717 206.976L257.214 215.376L263.966 217.986" stroke="#00347F" stroke-width="0.10584" stroke-miterlimit="10" stroke-linecap="round" stroke-linejoin="round"/>
<path d="M236.957 157.033C236.957 157.033 240.55 163.602 231.853 164.677C223.155 165.753 222.033 159.093 222.331 156.231" stroke="#00347F" stroke-width="0.10584" stroke-miterlimit="10" stroke-linecap="round" stroke-linejoin="round"/>
<path fill-rule="evenodd" clip-rule="evenodd" d="M291.478 128.788C290.814 130.802 286.191 126.155 285.252 128.055C284.612 129.978 289.556 135.013 293.058 137.852L306.905 206.221C312.216 225.837 342.772 228.057 341.376 217.986C335.677 176.969 308.027 133.915 308.027 133.915C307.89 126.018 310.636 126.865 308.485 124.485C301.046 116.29 289.67 119.472 289.075 120.525C287.724 122.882 290.586 125.743 291.478 128.788Z" fill="#F6CBAD"/>
<path d="M220.843 393.743H237.094V388.822H220.843V393.743Z" fill="white"/>
<path d="M226.977 441.096H230.96V367.142H226.977V441.096Z" fill="white"/>
<path fill-rule="evenodd" clip-rule="evenodd" d="M151.902 441.106H155.884L137.047 397.389H133.087L151.902 441.106Z" fill="#003366"/>
<path fill-rule="evenodd" clip-rule="evenodd" d="M86.6684 441.106H82.6858L101.523 397.389H105.506L86.6684 441.106Z" fill="#003366"/>
<path fill-rule="evenodd" clip-rule="evenodd" d="M103.08 393.727H135.262L137.047 397.389H101.592L103.08 393.727Z" fill="#003366"/>
<path d="M111.774 393.743H128.025V388.822H111.774V393.743Z" fill="white"/>
<path d="M117.885 441.102H121.868L121.868 295.299H117.885L117.885 441.102Z" fill="white"/>
<path d="M283.49 431.081C283.49 431.081 289.876 432.569 288.548 441.084M288.732 437.605C288.686 437.788 345.176 438.291 345.176 438.291M85.112 402.31C85.112 402.31 79.5271 401.349 76.3913 409.268M78.0851 406.064C78.0164 406.155 25.166 386.059 25.166 386.059" stroke="white" stroke-width="0.05288" stroke-miterlimit="10" stroke-linecap="round" stroke-linejoin="round"/>
<path d="M307.798 422.727C307.798 422.727 300.13 433.256 286.946 423.505M84.5398 393.543C84.5398 393.543 72.7291 398.716 64.9469 386.127" stroke="#00347F" stroke-width="0.10584" stroke-miterlimit="10" stroke-linecap="round" stroke-linejoin="round"/>
<path d="M239.795 118.007C239.795 118.007 238.239 122.356 229.816 122.196C221.392 122.013 217.913 126.819 217.913 126.819M239.063 125.126C238.536 125.217 239.612 127.872 231.784 127.529C223.956 127.186 221.644 130.825 221.553 131.1M215.83 131.1C215.83 131.1 212.283 134.968 216.311 145.062" stroke="white" stroke-width="0.03968" stroke-miterlimit="10" stroke-linecap="round" stroke-linejoin="round"/>
<path d="M274.413 361.826C300.058 336.181 300.057 294.602 274.412 268.957C248.766 243.313 207.187 243.313 181.543 268.959C155.898 294.604 155.899 336.183 181.545 361.828C207.19 387.472 248.769 387.472 274.413 361.826Z" fill="#3399FF"/>
<path d="M267.858 355.271C289.883 333.246 289.882 297.537 267.857 275.512C245.832 253.488 210.122 253.488 188.098 275.514C166.073 297.539 166.074 333.248 188.099 355.273C210.125 377.297 245.834 377.297 267.858 355.271Z" fill="white"/>
<path d="M267.858 355.271C289.883 333.246 289.882 297.537 267.857 275.512C245.832 253.488 210.122 253.488 188.098 275.514C166.073 297.539 166.074 333.248 188.099 355.273C210.125 377.297 245.834 377.297 267.858 355.271Z" stroke="#00347F" stroke-width="0.10584" stroke-miterlimit="10" stroke-linecap="round" stroke-linejoin="round"/>
<path d="M256.567 341.996C271.253 327.31 271.253 303.499 256.566 288.813C241.88 274.127 218.069 274.127 203.383 288.814C188.697 303.5 188.697 327.311 203.383 341.997C218.07 356.683 241.881 356.683 256.567 341.996Z" stroke="#94CAFF" stroke-width="0.10584" stroke-miterlimit="10" stroke-linecap="round" stroke-linejoin="round"/>
<path d="M226.977 381.069H230.96" stroke="#00347F" stroke-width="0.10584" stroke-miterlimit="10" stroke-linecap="round" stroke-linejoin="round"/>
<path fill-rule="evenodd" clip-rule="evenodd" d="M80.7402 256.462V290.063C80.7402 295.35 98.296 299.63 119.949 299.63C141.602 299.63 159.158 295.35 159.158 290.063V256.462H80.7402Z" fill="#3399FF"/>
<path d="M119.972 266.029C141.626 266.029 159.18 261.746 159.18 256.462C159.18 251.178 141.626 246.894 119.972 246.894C98.3174 246.894 80.7631 251.178 80.7631 256.462C80.7631 261.746 98.3174 266.029 119.972 266.029Z" fill="#003366"/>
<path d="M119.285 263.764C139.018 263.764 155.015 260.29 155.015 256.004C155.015 251.719 139.018 248.245 119.285 248.245C99.5522 248.245 83.5556 251.719 83.5556 256.004C83.5556 260.29 99.5522 263.764 119.285 263.764Z" fill="white"/>
<path d="M119.972 266.03V299.63" stroke="#00347F" stroke-width="0.10584" stroke-miterlimit="10" stroke-linecap="round" stroke-linejoin="round"/>
<path d="M100.333 264.61V298.394" stroke="#00347F" stroke-width="0.10584" stroke-miterlimit="10" stroke-linecap="round" stroke-linejoin="round"/>
<path d="M85.8216 261.246V294.847" stroke="#00347F" stroke-width="0.10584" stroke-miterlimit="10" stroke-linecap="round" stroke-linejoin="round"/>
<path d="M140.526 264.61V298.394" stroke="#00347F" stroke-width="0.10584" stroke-miterlimit="10" stroke-linecap="round" stroke-linejoin="round"/>
<path d="M155.015 261.246V294.847" stroke="#00347F" stroke-width="0.10584" stroke-miterlimit="10" stroke-linecap="round" stroke-linejoin="round"/>
<path d="M80.7402 290.498C80.7402 295.785 98.296 300.065 119.949 300.065C141.602 300.065 159.158 295.785 159.158 290.498" stroke="#00347F" stroke-width="0.10584" stroke-miterlimit="10" stroke-linecap="round" stroke-linejoin="round"/>
<path d="M117.912 300.065V388.805" stroke="#00347F" stroke-width="0.10584" stroke-miterlimit="10" stroke-linecap="round" stroke-linejoin="round"/>
<path fill-rule="evenodd" clip-rule="evenodd" d="M367.927 441.106H371.91L353.072 397.389H349.09L367.927 441.106Z" fill="#003366"/>
<path fill-rule="evenodd" clip-rule="evenodd" d="M302.694 441.106H298.711L317.549 397.389H321.531L302.694 441.106Z" fill="#003366"/>
<path fill-rule="evenodd" clip-rule="evenodd" d="M319.105 393.727H351.287L353.072 397.389H317.594L319.105 393.727Z" fill="#003366"/>
<path d="M327.794 393.743H344.045V388.822H327.794V393.743Z" fill="white"/>
<path d="M333.928 441.102H337.911V295.299H333.928V441.102Z" fill="white"/>
<path d="M333.914 299.63V388.806" stroke="#00347F" stroke-width="0.10584" stroke-miterlimit="10" stroke-linecap="round" stroke-linejoin="round"/>
<path d="M193.216 259.689C193.216 259.689 220.019 238.837 256.824 255.913" stroke="#00347F" stroke-width="0.10584" stroke-miterlimit="10" stroke-linecap="round" stroke-linejoin="round"/>
<path fill-rule="evenodd" clip-rule="evenodd" d="M293.63 256.462V290.063C293.63 295.35 311.186 299.63 332.838 299.63C354.491 299.63 372.047 295.35 372.047 290.063V256.462H293.63Z" fill="#3399FF"/>
<path d="M332.861 266.029C354.516 266.029 372.07 261.746 372.07 256.462C372.07 251.178 354.516 246.894 332.861 246.894C311.207 246.894 293.653 251.178 293.653 256.462C293.653 261.746 311.207 266.029 332.861 266.029Z" fill="#003366"/>
<path d="M332.175 263.764C351.908 263.764 367.904 260.29 367.904 256.004C367.904 251.719 351.908 248.245 332.175 248.245C312.442 248.245 296.445 251.719 296.445 256.004C296.445 260.29 312.442 263.764 332.175 263.764Z" fill="white"/>
<path d="M332.861 266.03V299.63" stroke="#00347F" stroke-width="0.10584" stroke-miterlimit="10" stroke-linecap="round" stroke-linejoin="round"/>
<path d="M313.223 264.61V298.394" stroke="#00347F" stroke-width="0.10584" stroke-miterlimit="10" stroke-linecap="round" stroke-linejoin="round"/>
<path d="M298.711 261.246V294.847" stroke="#00347F" stroke-width="0.10584" stroke-miterlimit="10" stroke-linecap="round" stroke-linejoin="round"/>
<path d="M353.416 264.61V298.394" stroke="#00347F" stroke-width="0.10584" stroke-miterlimit="10" stroke-linecap="round" stroke-linejoin="round"/>
<path d="M367.904 261.246V294.847" stroke="#00347F" stroke-width="0.10584" stroke-miterlimit="10" stroke-linecap="round" stroke-linejoin="round"/>
<path d="M293.63 290.498C293.63 295.785 311.186 300.065 332.838 300.065C354.491 300.065 372.047 295.785 372.047 290.498M55.9287 386.15C56.2262 385.67 65.4504 366.283 72.5918 375.072C79.7331 383.861 55.9287 386.15 55.9287 386.15ZM55.9287 386.15C55.4709 385.83 36.496 375.782 45.5829 369.006C54.6698 362.231 55.9287 386.15 55.9287 386.15ZM319.082 426.755C318.876 426.229 308.668 407.345 319.975 406.75C331.282 406.155 319.082 426.755 319.082 426.755ZM319.082 426.755C318.556 426.938 299.238 436.3 299.146 424.97C299.032 413.663 319.082 426.755 319.082 426.755Z" stroke="#00347F" stroke-width="0.10584" stroke-miterlimit="10" stroke-linecap="round" stroke-linejoin="round"/>
<path d="M61.4907 420.667C67.3044 418.149 69.1127 402.722 61.4907 396.061C53.8687 389.401 55.9516 386.15 55.9516 386.15C55.9516 386.15 27.5465 386.951 20.5882 359.92M347.716 416.753C337.691 432.363 319.082 426.755 319.082 426.755C319.082 426.755 320.662 445.753 309.103 452.437" stroke="#00347F" stroke-width="0.10584" stroke-miterlimit="10" stroke-linecap="round" stroke-linejoin="round"/>
<path fill-rule="evenodd" clip-rule="evenodd" d="M114.295 209.654C114.295 209.654 130.363 216.727 120.475 233.825C120.475 233.825 113.197 229.796 112.853 220.275C112.853 220.297 113.014 213.042 114.295 209.654Z" fill="#F4BE99"/>
<path d="M150.757 189.237L140.915 193.403" stroke="#00347F" stroke-width="0.10584" stroke-miterlimit="10" stroke-linecap="round" stroke-linejoin="round"/>
<path fill-rule="evenodd" clip-rule="evenodd" d="M319.746 236.457C319.746 236.457 320.89 213.385 341.376 217.986C341.376 217.986 341.193 240.257 319.746 236.457Z" fill="#F4BE99"/>
<path d="M303.472 189.237L319.746 196.562" stroke="#00347F" stroke-width="0.10584" stroke-miterlimit="10" stroke-linecap="round" stroke-linejoin="round"/>
<path d="M187.777 107.708L186.152 105.784L146.334 139.411L147.958 141.334L187.777 107.708Z" fill="#4A3469"/>
<path fill-rule="evenodd" clip-rule="evenodd" d="M190.47 108.508C188.936 109.79 186.67 109.607 185.388 108.073C184.106 106.54 184.29 104.274 185.823 102.992C187.357 101.71 189.623 101.893 190.904 103.427C192.186 104.937 192.003 107.226 190.47 108.508Z" fill="#4A3469"/>
<path d="M316.325 134.897L317.012 132.475L266.877 118.237L266.189 120.659L316.325 134.897Z" fill="#4A3469"/>
<path fill-rule="evenodd" clip-rule="evenodd" d="M264.08 122.493C266.003 123.043 267.994 121.921 268.544 119.998C269.093 118.076 267.971 116.084 266.049 115.535C264.126 114.986 262.135 116.107 261.585 118.03C261.059 119.93 262.158 121.944 264.08 122.493Z" fill="#4A3469"/>
<path d="M162.751 128.788L147.942 141.331" stroke="#00347F" stroke-width="0.10584" stroke-miterlimit="10" stroke-linecap="round" stroke-linejoin="round"/>
<path d="M291.638 127.849L308.05 132.518" stroke="#00347F" stroke-width="0.10584" stroke-miterlimit="10" stroke-linecap="round" stroke-linejoin="round"/>
<path d="M156.411 119.128C156.48 119.128 156.411 129.795 156.411 129.795C156.411 129.795 155.152 133.022 153.161 131.099L151.375 120.433" stroke="#00347F" stroke-width="0.10584" stroke-miterlimit="10" stroke-linecap="round" stroke-linejoin="round"/>
<path d="M153.069 130.504C153.069 130.504 151.192 133.411 149.201 131.717C147.21 130.001 145.218 125.148 145.218 125.148M156.411 129.795C156.411 129.795 159.135 130.275 159.959 127.529C160.806 124.782 162.156 119.128 162.156 119.128M292.577 119.289C292.577 119.289 293.058 125.675 295.026 126.224C296.994 126.773 298.848 119.289 298.848 119.289" stroke="#00347F" stroke-width="0.10584" stroke-miterlimit="10" stroke-linecap="round" stroke-linejoin="round"/>
<path d="M297.338 123.752C297.338 123.752 297.361 128.696 299.833 127.574C302.305 126.453 303.861 120.914 303.861 120.914" stroke="#00347F" stroke-width="0.10584" stroke-miterlimit="10" stroke-linecap="round" stroke-linejoin="round"/>
<path d="M167.054 179.487C167.054 179.487 162.27 189.283 166.253 193.403C170.213 197.523 173.578 199.606 172.525 203.383C171.472 207.159 168.656 209.7 174.562 212.492C180.467 215.285 178.201 221.236 178.201 221.236M290.036 181.066C290.036 181.066 276.509 184.339 279.69 190.817C282.872 197.294 285.779 201.483 280.56 205.031C275.342 208.578 271.565 206.495 275.136 213.385C278.683 220.275 273.739 220.481 273.739 220.481" stroke="white" stroke-width="0.05288" stroke-miterlimit="10" stroke-linecap="round" stroke-linejoin="round"/>
<path fill-rule="evenodd" clip-rule="evenodd" d="M219.126 211.462C219.126 211.462 209.513 183.79 213.267 184.636C217.021 185.483 221.621 200.796 221.621 200.796C221.621 200.796 226.222 198.85 229.014 200.796C229.014 200.796 231.372 198.69 233.478 200.796C233.478 200.796 234.737 188.116 237.232 188.39C239.749 188.665 237.506 209.952 235.561 212.492C235.675 217.093 224.78 226.18 219.126 211.462Z" fill="white"/>
<path d="M221.621 201.139C221.621 201.139 221.896 210.547 224.757 209.7C227.618 208.853 229.014 200.773 229.014 200.773" stroke="#00347F" stroke-width="0.10584" stroke-miterlimit="10" stroke-linecap="round" stroke-linejoin="round"/>
<path d="M226.977 207.342C226.977 207.342 228.442 215.399 231.303 209.769C234.164 204.138 233.455 200.796 233.455 200.796M218.028 208.212C218.28 208.372 221.965 206.77 224.093 209.7C225.696 211.92 220.042 213.568 220.042 213.568" stroke="#00347F" stroke-width="0.10584" stroke-miterlimit="10" stroke-linecap="round" stroke-linejoin="round"/>
<path d="M198.252 219.107L203.654 213.568" stroke="#00347F" stroke-width="0.10584" stroke-miterlimit="10" stroke-linecap="round" stroke-linejoin="round"/>
<path d="M350.623 239.776L361.564 229.11" stroke="#00347F" stroke-width="0.10584" stroke-miterlimit="10" stroke-linecap="round" stroke-linejoin="round"/>
<path d="M346.022 238.471L351.447 217.368" stroke="#00347F" stroke-width="0.10584" stroke-miterlimit="10" stroke-linecap="round" stroke-linejoin="round"/>
<path d="M83.9218 245.04L72.9809 234.374" stroke="#00347F" stroke-width="0.10584" stroke-miterlimit="10" stroke-linecap="round" stroke-linejoin="round"/>
<path d="M98.8453 245.04L96.6251 236.892" stroke="#00347F" stroke-width="0.10584" stroke-miterlimit="10" stroke-linecap="round" stroke-linejoin="round"/>
<path d="M68.3802 285.554L60.3691 288.873" stroke="#00347F" stroke-width="0.10584" stroke-miterlimit="10" stroke-linecap="round" stroke-linejoin="round"/>
<path d="M88.5224 243.736L83.0978 222.632" stroke="#00347F" stroke-width="0.10584" stroke-miterlimit="10" stroke-linecap="round" stroke-linejoin="round"/>
<path d="M236.087 285.554C234.828 286.355 199.03 318.994 210.658 320.436C222.285 321.878 262.409 294.663 249.889 308.9C237.346 323.137 233.615 336.573 246.135 330.691" stroke="#00347F" stroke-width="0.10584" stroke-miterlimit="10" stroke-linecap="round" stroke-linejoin="round"/>
<path fill-rule="evenodd" clip-rule="evenodd" d="M472.369 113.727C472.369 113.727 450.739 126.659 464.61 169.553C471.408 190.588 485.256 167.104 485.256 167.104L486.308 162.411C486.308 162.411 488.231 131.946 487.796 130.047C487.316 128.124 472.369 113.727 472.369 113.727Z" fill="#F6CBAD"/>
<path fill-rule="evenodd" clip-rule="evenodd" d="M490.245 186.857L435.106 132.038C428.102 133.823 426.82 136.227 427.644 139.408C437.052 158.749 454.195 191.732 478.297 208.532C483.035 211.828 499.79 203.383 490.245 186.857Z" fill="#F6CBAD"/>
<path fill-rule="evenodd" clip-rule="evenodd" d="M440.485 137.806L430.826 125.24C431.146 121.944 430.437 116.657 428.056 114.162C426.591 113.681 429.43 122.47 428.033 121.761C424.508 120.021 422.197 106.219 420.64 107.295C413.774 112.033 422.105 124.782 424.76 132.061C426.431 136.799 427.484 138.744 428.171 140.438L440.485 137.806Z" fill="#F6CBAD"/>
<path fill-rule="evenodd" clip-rule="evenodd" d="M493.358 81.4305C506.725 84.0856 508.305 63.7831 524.693 60.8305C536.893 58.6331 532.063 50.3245 552.251 45.4034C572.439 40.4822 578.505 69.8029 556.783 74.2205C535.062 78.638 530.919 69.9631 519.612 77.7682C508.305 85.5962 494.32 85.23 493.358 81.4305Z" fill="#003366"/>
<path fill-rule="evenodd" clip-rule="evenodd" d="M491.413 80.2861C489.81 81.0414 489.398 83.5134 490.474 85.8023C491.55 88.0912 493.724 89.3501 495.327 88.5947C496.929 87.8394 497.341 85.3674 496.265 83.0785C495.189 80.7896 493.015 79.5307 491.413 80.2861Z" fill="#4A3469"/>
<path fill-rule="evenodd" clip-rule="evenodd" d="M478.595 195.76L464.358 201.139L440.782 276.032C439.089 284.867 434.831 298.989 434.534 311.418C436.846 346.072 441.263 377.819 443.575 412.472C442.11 421.765 432.497 429.662 422.288 433.141C441.767 435.499 460.513 418.263 456.576 405.514C453.371 395.123 467.654 373.012 460.581 305.261C463.877 285.508 485.553 267.128 488.78 246.299L478.595 195.76Z" fill="#F6CBAD"/>
<path fill-rule="evenodd" clip-rule="evenodd" d="M462.641 200.384C464.747 193.929 467.036 187.2 469.6 179.807C471.202 174.542 470.446 164.975 469.531 160.809C470.286 157.376 460.009 141.262 468.684 124.759C472.3 117.847 471.202 113.406 474.292 112.033C475.322 111.575 476.947 110.705 478.229 110.476C481.914 109.813 485.645 110.522 487.041 110.659C488.3 110.98 499.195 112.674 500.889 113.749C511.28 120.387 512.081 133.915 509.701 147.167C507.732 158.108 503.155 168.889 503.773 175.343C504.711 185.025 508.488 193.037 512.608 200.338L462.641 200.384Z" fill="#F6CBAD"/>
<path fill-rule="evenodd" clip-rule="evenodd" d="M477.656 110.82C477.656 110.82 481.364 109.652 476.169 100.405C475.368 98.9633 472.827 99.6042 472.667 98.5055C472.209 95.5529 475.528 91.5473 474.658 88.0911C474.04 85.6649 478.32 84.5662 481.479 84.1542C486.675 83.4675 495.121 87.5646 490.795 98.62C489.765 101.275 488.162 102.763 487.453 110.545C487.201 113.315 486.492 124.668 480.174 128.513C476.054 123.752 480.266 114.574 477.656 110.82Z" fill="#F6CBAD"/>
<path fill-rule="evenodd" clip-rule="evenodd" d="M456.461 405.491C456.461 405.491 461.932 410.229 462.367 413.617C462.802 417.027 461.176 420.117 461.039 423.665C460.902 426.778 460.673 436.986 460.604 439.413H458.659L458.521 424.626C453.44 418.607 446.94 438.016 439.798 439.413H414.483C414.437 429.25 435.06 437.009 444.468 420.186C445.91 417.645 450.831 407.505 456.461 405.491Z" fill="#4A3469"/>
<path fill-rule="evenodd" clip-rule="evenodd" d="M461.68 241.309L463.9 256.347L474.635 315.881C477.542 327.623 485.805 335.68 497.867 338.633C532.224 343.737 564.176 346.163 598.533 351.268C607.299 354.678 612.976 365.756 614.189 376.445C620.62 357.905 607.78 335.932 594.458 337.076C583.609 337.992 573.286 313.913 505.604 306.405C486.995 298.966 532.864 249.664 513.203 242.088L461.68 241.309Z" fill="#F6CBAD"/>
<path fill-rule="evenodd" clip-rule="evenodd" d="M594.481 337.214C594.481 337.214 600.272 332.865 603.683 333.163C607.093 333.46 609.794 335.703 613.227 336.596C616.249 337.397 626.182 339.8 628.517 340.373L628.105 342.272L613.639 339.274C606.658 342.959 624.26 353.442 624.1 360.698L618.698 385.418C608.741 383.312 620.712 364.795 606.292 352.023C604.118 350.1 595.237 343.119 594.481 337.214Z" fill="#4A3469"/>
<path fill-rule="evenodd" clip-rule="evenodd" d="M474.429 86.9238C476.283 88.6862 484.203 82.2544 485.233 92.0051C485.301 92.7376 485.095 95.2325 488.506 94.2025C491.916 93.1953 492.145 97.9791 488.002 98.1393C486.263 98.208 487.224 107.844 487.819 107.455C492.626 100.199 501.644 94.0193 493.244 82.8953C485.576 72.7556 470.515 80.0113 474.429 86.9238Z" fill="#003366"/>
<path fill-rule="evenodd" clip-rule="evenodd" d="M503.796 176.282C504.185 180.402 505.306 183.973 506.725 187.406C501.919 187.612 497.089 187.887 492.214 188.001C483.653 188.207 475.093 188.367 466.532 188.642C467.54 185.689 468.57 182.714 469.577 179.784C471.179 174.52 470.424 164.952 469.508 160.786C468.982 157.65 465.914 150.028 465.182 140.003C464.564 131.717 469.897 113.292 474.635 111.827C473.285 114.116 471.27 117.32 468.57 129.451C471.797 128.49 475.711 129.406 478.435 131.511C481.616 128.627 484.729 125.812 490.36 128.009C490.337 120.204 492.649 115.375 497.501 112.651C498.989 112.994 500.179 113.338 500.751 113.635C497.066 115.1 495.418 123.958 501.301 134.418C503.91 138.286 505.672 138.401 510.365 142.452C509.335 153.05 503.246 170.491 503.796 176.282Z" fill="#3399FF"/>
<path fill-rule="evenodd" clip-rule="evenodd" d="M510.388 142.475C505.695 138.424 503.933 138.309 501.324 134.441C499.95 131.992 498.966 129.612 498.348 127.414C497.318 130.687 496.013 133.892 494.365 137.005C491.321 146.389 486.102 154.515 478.709 161.359C476.123 164.128 473.376 166.6 470.446 168.752C470.63 172.666 470.469 176.9 469.577 179.807C468.547 182.76 467.54 185.712 466.532 188.665C475.093 188.39 483.653 188.23 492.214 188.024C497.089 187.91 501.919 187.635 506.725 187.429C505.306 183.996 504.185 180.425 503.796 176.305C503.246 170.491 509.335 153.05 510.388 142.475Z" fill="#0066CC"/>
<path fill-rule="evenodd" clip-rule="evenodd" d="M487.544 182.76C493.221 182.279 498.897 181.592 504.551 180.814C506.359 188.413 510.433 194.433 513.272 202.261C521.168 224.028 520.985 245.818 520.985 278.229C507.435 292.168 452.799 307.55 435.701 299.905C439.638 268.707 456.782 216.933 468.57 182.782C474.818 183.24 481.067 183.309 487.544 182.76Z" fill="#4A3469"/>
<path fill-rule="evenodd" clip-rule="evenodd" d="M474.635 183.08C478.892 183.194 483.173 183.149 487.544 182.76C493.221 182.279 498.897 181.592 504.551 180.814C506.359 188.413 510.433 194.433 513.272 202.261C521.168 224.028 520.985 245.818 520.985 278.229C512.837 284.363 496.265 293.404 478.343 297.502C498.989 264.519 500.431 213.866 474.635 183.08Z" fill="#4A3469"/>
<path fill-rule="evenodd" clip-rule="evenodd" d="M499.332 113.727C499.332 113.727 526.135 115.855 524.396 180.906C524.258 185.644 510.891 191.068 505.398 179.693C500.248 169.049 495.693 144.856 494.938 132.931C494.182 120.845 494.8 115.26 499.332 113.727Z" fill="#F6CBAD"/>
<path fill-rule="evenodd" clip-rule="evenodd" d="M507.046 165.662L434.305 193.082C433.023 200.201 434.671 202.352 437.921 202.925C459.437 202.398 496.563 200.475 521.832 185.506C526.776 182.576 526.044 163.83 507.046 165.662Z" fill="#F6CBAD"/>
<path fill-rule="evenodd" clip-rule="evenodd" d="M441.79 190.588L426.362 194.181C423.501 192.533 418.397 190.954 415.147 192.098C414.094 193.243 423.272 194.296 422.059 195.28C418.992 197.775 409.882 194.891 410.203 196.745C411.668 204.962 413.659 204.367 422.952 204.298C428.812 204.138 437.258 202.833 439.112 202.902L441.79 190.588Z" fill="#F6CBAD"/>
<path d="M474.635 183.08C474.635 183.08 443.598 264.13 456.438 301.965M485.278 185.232C485.278 185.232 473.33 269.669 480.998 295.716M497.822 189.855C497.822 189.855 507.343 265.686 501.072 289.697M503.2 191.297C503.2 191.297 518.147 222.655 517.781 281.022" stroke="white" stroke-width="0.03968" stroke-miterlimit="10" stroke-linecap="round" stroke-linejoin="round"/>
<path d="M446.613 110.577L442.559 109.203L353.428 372.077L357.482 373.451L446.613 110.577Z" fill="white"/>
<path fill-rule="evenodd" clip-rule="evenodd" d="M385.986 383.106L324.919 362.392C325.857 359.622 328.856 358.134 331.625 359.073L382.668 376.377C385.437 377.338 386.925 380.336 385.986 383.106Z" fill="#003366"/>
<path d="M364.911 364.769L352.794 360.661L351.096 365.668L363.213 369.777L364.911 364.769Z" fill="#4A3469"/>
<path fill-rule="evenodd" clip-rule="evenodd" d="M456.255 111.484L439.981 114.436C437.692 114.848 435.518 113.338 435.083 111.049C434.671 108.76 436.182 106.585 438.471 106.15L454.745 103.198L456.255 111.484Z" fill="#4A3469"/>
<path fill-rule="evenodd" clip-rule="evenodd" d="M464.495 104.983C465.09 108.233 462.939 111.346 459.689 111.941C456.438 112.536 453.326 110.385 452.73 107.135C452.135 103.884 454.287 100.772 457.537 100.176C460.81 99.6042 463.923 101.756 464.495 104.983Z" fill="#003366"/>
<path fill-rule="evenodd" clip-rule="evenodd" d="M514.187 189.489C514.187 189.489 512.654 174.199 517.781 173.444C522.908 172.666 524.487 175.321 524.487 175.321C524.487 175.321 525.174 181.226 523.091 184.224C521.031 187.223 514.187 189.489 514.187 189.489ZM455.134 185.232L469.6 179.807C469.6 179.807 470.63 174.291 470.538 171.361C470.538 171.338 458.109 169.53 455.134 185.232ZM445.131 301.942C445.131 301.942 444.994 318.742 435.175 320.413L434.534 311.395C434.534 311.395 435.014 303.155 435.701 299.882C435.701 299.905 440.599 301.965 445.131 301.942ZM476.512 321.398C476.512 321.398 492.511 321.214 496.059 328.745C499.607 336.275 498.806 338.793 498.806 338.793C498.806 338.793 483.928 337.466 476.512 321.398Z" fill="#F4BE99"/>
<path d="M478.915 102.168C478.915 102.168 481.845 105.418 483.836 100.085" stroke="#00347F" stroke-width="0.10584" stroke-miterlimit="10" stroke-linecap="round" stroke-linejoin="round"/>
<path d="M461.611 158.383L465.777 162.526" stroke="#00347F" stroke-width="0.10584" stroke-miterlimit="10" stroke-linecap="round" stroke-linejoin="round"/>
<path d="M501.209 167.859L507.046 165.662C507.046 165.662 517.483 164.517 520.985 169.919" stroke="#00347F" stroke-width="0.10584" stroke-miterlimit="10" stroke-linecap="round" stroke-linejoin="round"/>
<path d="M445.635 113.406L433.115 150.349" stroke="#003366" stroke-width="0.10584" stroke-miterlimit="10" stroke-linecap="round" stroke-linejoin="round"/>
<path d="M411.324 201.323L414.575 204.138L361.564 361.385" stroke="#00347F" stroke-width="0.10584" stroke-miterlimit="10" stroke-linecap="round" stroke-linejoin="round"/>
<path d="M435.701 299.905C435.701 299.905 444.284 304.872 461.703 300.569L460.581 305.238C460.581 305.238 464.976 341.448 460.352 374.546M471.614 299.104C471.614 299.104 491.138 295.259 503.2 288.689" stroke="#00347F" stroke-width="0.10584" stroke-miterlimit="10" stroke-linecap="round" stroke-linejoin="round"/>
<path d="M505.65 306.451L497.822 308.9" stroke="#00347F" stroke-width="0.10584" stroke-miterlimit="10" stroke-linecap="round" stroke-linejoin="round"/>
<path d="M454.882 106.265C454.882 106.265 454.241 101.756 459.963 101.252M503.223 80.0801C503.223 80.0801 508.442 79.5307 513.958 71.039C519.474 62.5472 523.846 63.0965 529.98 62.4098C536.115 61.7232 537.786 49.3174 550.878 49.4547" stroke="white" stroke-width="0.05288" stroke-miterlimit="10" stroke-linecap="round" stroke-linejoin="round"/>
<path d="M519.589 77.7912C519.589 77.7912 525.082 74.5181 533.872 77.7912C542.661 81.0644 570.448 77.3106 568.777 64.447" stroke="#00347F" stroke-width="0.10584" stroke-miterlimit="10" stroke-linecap="round" stroke-linejoin="round"/>
<path fill-rule="evenodd" clip-rule="evenodd" d="M470.881 284.272C470.881 286.675 468.936 288.598 466.555 288.598C464.152 288.598 462.206 286.652 462.206 284.272C462.206 281.869 464.152 279.923 466.555 279.923C468.936 279.946 470.881 281.891 470.881 284.272ZM497.478 275.597C497.478 278 495.533 279.946 493.129 279.946C490.726 279.946 488.803 278 488.803 275.597C488.803 273.194 490.749 271.271 493.129 271.271C495.51 271.271 497.478 273.217 497.478 275.597ZM516.911 267.471C516.911 269.875 514.965 271.797 512.562 271.797C510.159 271.797 508.236 269.852 508.236 267.471C508.236 265.068 510.182 263.123 512.562 263.123C514.965 263.145 516.911 265.091 516.911 267.471ZM450.464 288.621C450.464 291.024 448.519 292.97 446.138 292.97C443.735 292.97 441.79 291.024 441.79 288.621C441.79 286.217 443.735 284.295 446.138 284.295C448.519 284.272 450.464 286.217 450.464 288.621Z" fill="white"/>
<path d="M413.156 195.921L417.573 196.195" stroke="#00347F" stroke-width="0.10584" stroke-miterlimit="10" stroke-linecap="round" stroke-linejoin="round"/>
<path d="M452.639 105.166L439.386 107.478" stroke="white" stroke-width="0.05288" stroke-miterlimit="10" stroke-linecap="round" stroke-linejoin="round"/>
<path d="M435.106 111.049C435.106 111.049 388.573 123.866 409.745 178.296" stroke="#E2480D" stroke-width="0.10584" stroke-miterlimit="10" stroke-linecap="round" stroke-linejoin="round"/>
<path d="M435.106 130.825L430.414 145.016" stroke="#00347F" stroke-width="0.10584" stroke-miterlimit="10" stroke-linecap="round" stroke-linejoin="round"/>
<path d="M468.592 129.474C468.592 129.474 472.026 127.986 478.458 131.534C478.458 131.534 485.965 125.423 490.383 128.032" stroke="#00347F" stroke-width="0.05288" stroke-miterlimit="10" stroke-linecap="round" stroke-linejoin="round"/>
<path d="M439.798 439.436C439.798 439.436 443.186 439.55 449.709 429.548C456.232 419.545 458.521 424.649 458.521 424.649M624.1 360.675C624.1 360.675 624.534 357.562 618.148 350.695C611.785 343.829 610.687 341.059 613.639 339.251" stroke="#00347F" stroke-width="0.10584" stroke-miterlimit="10" stroke-linecap="round" stroke-linejoin="round"/>
<path fill-rule="evenodd" clip-rule="evenodd" d="M443.918 426.275C443.506 426.915 442.636 427.121 441.996 426.687L435.175 422.315C434.534 421.903 434.328 421.033 434.763 420.392C435.175 419.751 436.044 419.545 436.685 419.98L443.506 424.352C444.147 424.764 444.353 425.634 443.918 426.275ZM601.165 357.448C600.524 357.036 600.318 356.166 600.753 355.525L605.125 348.704C605.537 348.063 606.406 347.857 607.047 348.292C607.688 348.704 607.894 349.574 607.459 350.215L603.088 357.036C602.676 357.677 601.806 357.86 601.165 357.448Z" fill="#003366"/>
<path d="M10.9062 441.106H807.92" stroke="#00347F" stroke-width="0.08" stroke-miterlimit="10" stroke-linecap="round" stroke-linejoin="round"/>
</g>
<defs>
<clipPath id="clip0_313_23">
<rect width="808" height="453" fill="white"/>
</clipPath>
</defs>
</svg>
