<?xml version="1.0" standalone="no"?>
<!DOCTYPE svg PUBLIC "-//W3C//DTD SVG 20010904//EN"
 "http://www.w3.org/TR/2001/REC-SVG-20010904/DTD/svg10.dtd">
<svg version="1.0" xmlns="http://www.w3.org/2000/svg"
 width="672.000000pt" height="672.000000pt" viewBox="0 0 672.000000 672.000000"
 preserveAspectRatio="xMidYMid meet">
<metadata>
Created by potrace 1.14, written by Peter Selinger 2001-2017
</metadata>
<g transform="translate(0.000000,672.000000) scale(0.100000,-0.100000)"
fill="#000000" stroke="none">
<path d="M5000 5924 c-58 -24 -116 -49 -130 -56 -14 -6 -27 -12 -30 -13 -8 -3
-41 -16 -97 -41 -28 -12 -54 -20 -57 -16 -3 3 -6 0 -6 -6 0 -7 -5 -12 -12 -12
-12 0 -259 -101 -338 -138 -19 -9 -39 -17 -45 -18 -10 -2 -213 -86 -250 -104
-11 -5 -49 -21 -85 -36 -36 -14 -78 -32 -95 -39 -101 -45 -568 -235 -575 -235
-6 0 -10 -4 -10 -8 0 -5 -6 -9 -12 -9 -7 0 -31 -8 -53 -18 -22 -10 -44 -19
-50 -21 -9 -2 -59 -23 -130 -54 -11 -5 -76 -32 -145 -60 -69 -29 -138 -58
-155 -65 -16 -7 -96 -40 -176 -74 -198 -82 -203 -84 -209 -86 -3 -1 -23 -9
-45 -19 -22 -10 -62 -27 -90 -38 -27 -11 -66 -26 -85 -35 -19 -8 -49 -22 -67
-29 -17 -8 -34 -14 -37 -14 -3 0 -31 -12 -63 -26 -92 -42 -121 -54 -127 -54
-3 0 -29 -11 -58 -24 -29 -13 -78 -34 -108 -46 -30 -12 -73 -30 -95 -40 -22
-9 -67 -28 -100 -41 -33 -13 -75 -32 -93 -41 -18 -10 -38 -18 -45 -18 -7 0
-29 -9 -50 -20 -20 -11 -37 -17 -37 -14 0 4 -7 1 -15 -6 -8 -7 -15 -9 -15 -4
0 5 -4 4 -8 -2 -4 -6 -45 -25 -92 -44 -47 -18 -89 -36 -95 -40 -5 -4 -32 -15
-60 -25 -27 -10 -59 -24 -70 -31 -11 -7 -22 -13 -25 -13 -6 0 -31 -9 -129 -50
-41 -17 -78 -31 -84 -31 -6 0 -18 -6 -26 -13 -9 -8 -38 -22 -66 -31 -27 -10
-70 -27 -95 -38 -73 -32 -102 -45 -152 -67 -27 -11 -48 -24 -48 -29 0 -5 7
-27 16 -47 39 -95 26 -253 -32 -367 -28 -55 -128 -162 -163 -173 -11 -3 -21
-11 -21 -16 0 -5 -3 -8 -7 -7 -5 1 -19 -4 -31 -11 -27 -14 -25 -31 10 -110 35
-79 46 -104 68 -161 12 -30 26 -60 31 -67 12 -13 43 -6 109 26 24 11 47 21 51
21 3 0 33 12 65 27 33 15 61 27 64 28 3 1 21 6 40 12 132 39 245 -100 181
-222 -27 -51 -36 -56 -281 -158 -51 -21 -86 -42 -88 -52 -2 -9 3 -31 11 -48 8
-18 31 -72 52 -122 20 -49 46 -109 56 -132 10 -24 19 -47 19 -53 0 -20 47 -9
135 30 174 78 221 93 268 86 21 -4 49 -14 63 -22 58 -39 87 -138 57 -198 -17
-32 -72 -86 -88 -86 -6 0 -33 -11 -61 -24 -27 -13 -86 -38 -131 -56 -93 -36
-109 -50 -95 -77 5 -10 14 -29 20 -43 5 -14 19 -46 31 -72 12 -26 21 -52 21
-58 0 -5 5 -10 12 -10 6 0 9 -3 5 -6 -6 -7 40 -123 58 -142 12 -14 47 -3 156
47 184 84 232 91 300 46 72 -47 93 -133 51 -214 -18 -35 -84 -75 -202 -124
-155 -63 -170 -71 -164 -90 3 -10 32 -80 64 -155 54 -129 68 -148 95 -133 6 3
15 6 20 8 6 1 21 5 35 8 68 17 154 14 245 -9 20 -6 50 -18 65 -27 8 -5 29 -16
45 -25 45 -24 132 -118 160 -173 13 -27 29 -53 35 -56 10 -6 110 28 135 45 6
4 21 11 35 15 14 4 43 15 65 25 22 9 65 27 95 40 30 13 78 34 107 47 28 13 55
23 58 23 4 0 37 13 73 29 37 16 146 61 242 101 96 40 194 81 217 91 23 11 45
19 48 19 3 0 25 9 49 19 23 11 65 29 92 40 27 10 72 29 99 42 28 12 55 23 60
24 6 2 32 12 57 24 26 11 51 21 57 21 5 0 26 9 45 21 20 12 36 18 36 14 0 -3
12 1 28 9 15 9 56 27 92 41 36 15 79 33 97 41 17 8 36 14 42 14 6 0 11 5 11
11 0 5 4 8 8 5 5 -3 19 1 33 7 13 7 89 39 169 72 80 32 154 65 165 72 11 7 29
13 41 13 12 0 27 7 34 15 7 8 20 15 29 15 9 0 38 11 65 25 27 14 57 25 66 25
9 0 20 4 26 9 5 4 55 27 111 49 56 23 121 50 145 61 24 10 95 40 158 66 63 26
134 56 157 66 23 11 48 19 55 19 8 0 18 4 24 8 5 5 34 19 64 31 30 13 69 29
85 36 17 8 77 33 135 56 58 23 109 46 114 51 6 4 16 8 22 8 7 0 43 14 81 31
84 37 82 37 223 94 63 26 134 56 157 66 23 11 45 19 48 19 7 0 34 11 128 54
32 14 60 26 63 26 3 0 24 8 47 19 46 20 79 34 87 35 3 1 16 8 30 16 14 7 25
12 25 11 0 -3 43 13 98 37 23 10 62 27 87 37 25 10 68 29 97 42 28 12 54 23
57 23 16 0 95 43 99 54 3 7 -4 37 -15 67 -25 67 -31 217 -12 272 7 20 11 37 9
37 -7 0 48 96 78 136 31 40 135 124 155 124 13 0 25 32 15 39 -4 3 -9 13 -11
21 -2 8 -11 32 -21 55 -10 22 -31 72 -46 110 -38 93 -42 97 -69 83 -11 -7 -25
-13 -31 -14 -5 -1 -32 -12 -60 -25 -27 -13 -56 -24 -64 -25 -8 -2 -17 -6 -20
-11 -3 -4 -10 -9 -16 -10 -5 -1 -35 -11 -65 -22 -57 -20 -122 -20 -146 0 -8 6
-14 9 -14 5 0 -3 -8 2 -18 12 -25 25 -64 82 -56 82 3 0 2 6 -3 13 -12 16 -8
83 6 100 6 8 9 16 6 19 -15 14 72 75 156 110 198 81 219 91 219 100 0 10 -8
31 -54 131 -14 32 -26 61 -26 65 0 13 -57 143 -66 152 -8 7 -119 -34 -239 -89
-64 -29 -87 -35 -134 -33 -49 2 -121 44 -129 74 -2 10 -7 18 -11 18 -8 0 -14
49 -13 99 1 36 41 95 77 115 11 6 22 13 25 16 3 3 11 6 18 8 24 5 257 103 266
113 6 5 4 19 -4 36 -7 16 -14 30 -14 33 -2 11 -70 176 -76 185 -4 6 -14 31
-24 57 -10 26 -21 50 -26 53 -4 3 -30 -5 -57 -17 -26 -11 -53 -22 -59 -23 -6
-2 -27 -10 -45 -18 -171 -77 -221 -85 -285 -46 -28 17 -66 61 -70 82 -1 4 -3
10 -4 15 -9 27 -3 82 11 112 23 47 52 70 124 99 33 14 80 33 105 44 25 11 47
21 50 22 3 1 18 7 33 13 16 7 32 12 36 12 5 0 14 6 20 14 11 13 4 39 -42 146
-6 14 -11 27 -12 30 0 3 -10 26 -22 52 -12 25 -24 57 -28 70 -10 30 -25 39
-45 28 -9 -5 -28 -11 -41 -14 -13 -3 -35 -8 -49 -11 -28 -7 -137 -8 -160 -2
-62 16 -82 23 -137 49 -73 35 -167 129 -201 201 -12 26 -28 47 -35 46 -6 0
-59 -21 -117 -45z m760 -258 c0 -3 -4 -8 -10 -11 -5 -3 -10 -1 -10 4 0 6 5 11
10 11 6 0 10 -2 10 -4z m-5435 -1745 c3 -5 1 -12 -5 -16 -5 -3 -10 1 -10 9 0
18 6 21 15 7z m-265 -646 c0 -8 -4 -15 -10 -15 -5 0 -7 7 -4 15 4 8 8 15 10
15 2 0 4 -7 4 -15z m110 -265 c0 -5 -7 -7 -15 -4 -8 4 -15 8 -15 10 0 2 7 4
15 4 8 0 15 -4 15 -10z m6254 -225 c-4 -8 -10 -15 -15 -15 -5 0 -9 7 -9 15 0
8 7 15 15 15 9 0 12 -6 9 -15z m-6094 -145 c0 -5 -4 -10 -10 -10 -5 0 -10 5
-10 10 0 6 5 10 10 10 6 0 10 -4 10 -10z m120 -306 c0 -8 -5 -12 -10 -9 -6 4
-8 11 -5 16 9 14 15 11 15 -7z m160 -374 c0 -5 -4 -10 -10 -10 -5 0 -10 5 -10
10 0 6 5 10 10 10 6 0 10 -4 10 -10z m125 -300 c3 -5 1 -10 -4 -10 -6 0 -11 5
-11 10 0 6 2 10 4 10 3 0 8 -4 11 -10z m155 -364 c0 -3 -4 -8 -10 -11 -5 -3
-10 -1 -10 4 0 6 5 11 10 11 6 0 10 -2 10 -4z m750 -526 c0 -5 -2 -10 -4 -10
-3 0 -8 5 -11 10 -3 6 -1 10 4 10 6 0 11 -4 11 -10z"/>
</g>
</svg>
