<svg width="184" height="24" viewBox="0 0 184 24" fill="none" xmlns="http://www.w3.org/2000/svg">
<path d="M25.6001 11.7392L25.5974 11.733L25.1477 10.6525C25.1377 10.6293 25.1111 10.6182 25.0875 10.6279L24.0426 11.063C23.8783 11.1377 23.6933 11.1457 23.5283 11.0814C23.364 11.0194 23.2281 10.8877 23.1617 10.7251C23.0929 10.5632 23.0956 10.3744 23.1669 10.2146C23.2378 10.0531 23.3727 9.92786 23.5404 9.86456L24.5857 9.42944V9.4291C24.6137 9.41734 24.6268 9.38517 24.6151 9.35716L24.0769 8.06426C24.0644 8.03486 24.0305 8.02068 24.0011 8.03313L22.9559 8.46825C22.7937 8.54192 22.6128 8.54918 22.4506 8.48658C22.2894 8.42536 22.1559 8.29634 22.0908 8.13689C22.0234 7.97779 22.0262 7.79274 22.096 7.63572C22.1656 7.47696 22.2973 7.35486 22.4634 7.29191L23.5083 6.8568C23.5425 6.84227 23.5588 6.80284 23.5442 6.76894L23.006 5.4757C22.9908 5.44042 22.95 5.42313 22.9144 5.43835L21.8688 5.87346C21.7083 5.94644 21.5316 5.95301 21.3724 5.8911C21.2137 5.83127 21.0833 5.70433 21.0193 5.5473C20.9536 5.39165 20.956 5.21007 21.0252 5.05615C21.0937 4.90016 21.222 4.78083 21.3856 4.71892L22.4308 4.28415C22.4717 4.26686 22.491 4.21982 22.4741 4.179L22.0075 3.05732V3.05697C21.9895 3.01443 21.9407 2.99471 21.8985 3.0127C21.4676 3.19325 20.9674 3.19428 20.5368 3.01512C20.1048 2.83872 19.7517 2.48592 19.5746 2.05565L19.5742 2.0553C19.5552 2.00965 19.5026 1.98786 19.4566 2.00688L19.4559 2.00723L10.2569 5.83957L5.65882 7.7585L1.06451 9.68712L1.06382 9.68747H1.06347C1.00744 9.71134 0.981155 9.77601 1.00502 9.83205C1.18453 10.2557 1.1873 10.749 1.01159 11.1747C0.839 11.6019 0.491391 11.9523 0.06596 12.1297H0.0656138C0.0109654 12.1529 -0.0146293 12.2155 0.00854402 12.2698L0.479286 13.3898V13.3901C0.501768 13.4437 0.56368 13.469 0.617291 13.4465L1.66115 13.0079C1.81611 12.937 1.98178 12.9308 2.13466 12.9885C2.28581 13.0453 2.41067 13.1653 2.47259 13.315C2.53623 13.4638 2.53484 13.6374 2.46947 13.7854C2.40376 13.9352 2.28304 14.0497 2.12325 14.1113L1.07938 14.5502C1.02854 14.5713 1.00468 14.6297 1.02612 14.6806L1.56846 15.9717C1.58956 16.0216 1.64697 16.0451 1.69678 16.024L2.7403 15.5854C2.89663 15.5138 3.06473 15.5072 3.21934 15.566C3.37222 15.6231 3.49915 15.7448 3.56176 15.8963C3.62609 16.0468 3.62436 16.2229 3.5583 16.3726C3.49189 16.5241 3.3691 16.6403 3.20792 16.7022L2.16441 17.1408L2.16372 17.1412C2.11737 17.1609 2.09523 17.2145 2.11495 17.2612L2.65936 18.5517L2.65971 18.5523C2.67873 18.597 2.73027 18.6177 2.77488 18.599L3.81771 18.158C3.97578 18.0851 4.14837 18.0775 4.30609 18.1373C4.46277 18.1954 4.59282 18.3192 4.65716 18.4742C4.72357 18.6284 4.72253 18.8086 4.65474 18.9626C4.58764 19.1182 4.46035 19.2386 4.29641 19.3019L3.25393 19.7429C3.21726 19.7581 3.19962 19.8006 3.21519 19.8373L3.67348 20.9213C3.68766 20.9541 3.72467 20.9711 3.75856 20.9593L3.76271 20.9579L3.76894 20.9559C4.20475 20.7791 4.70662 20.7864 5.13378 20.9707C5.56267 21.1523 5.90889 21.5072 6.0801 21.935L6.08045 21.9364C6.10259 21.989 6.16277 22.0139 6.21534 21.9921L6.21707 21.9914L6.2233 21.9887L8.1495 21.1883L15.4226 18.166L21.6294 15.5806L24.6185 14.3354C24.6932 14.3043 24.7302 14.2192 24.7015 14.1431L24.6995 14.1379L24.6974 14.132C24.5068 13.7256 24.4847 13.2372 24.6462 12.8031C24.8039 12.368 25.1432 11.9955 25.577 11.7963L25.579 11.7953C25.6001 11.7856 25.6098 11.7603 25.6001 11.7392ZM25.5199 11.7728L25.5175 11.7665L25.5026 11.7313C25.0526 11.9118 24.6704 12.274 24.4663 12.7291C24.2716 13.1525 24.2363 13.6537 24.3726 14.1113L24.502 14.057L24.421 14.2545L24.4189 14.2475C24.4017 14.2026 24.3864 14.1573 24.3726 14.1113L20.0892 15.9147L19.8769 16.0039L15.3206 17.9222L6.22918 21.759C6.24474 21.7901 6.25927 21.8219 6.2731 21.8541L6.13614 21.7981L6.14236 21.7957L6.22918 21.759C6.01577 21.3298 5.64222 20.9849 5.1995 20.8109C4.7457 20.6276 4.22412 20.6276 3.77344 20.8061L3.79938 20.8687L3.71014 20.832L3.71671 20.8296C3.73539 20.8213 3.75441 20.8137 3.77344 20.8061L3.37637 19.8484L3.30996 19.876L3.3487 19.7816L3.37637 19.8484L4.35555 19.4426C4.54475 19.3721 4.7163 19.2178 4.79828 19.0252C4.88405 18.8339 4.88717 18.6063 4.80519 18.4123C4.72599 18.2172 4.56204 18.0584 4.36489 17.9837C4.16981 17.9052 3.93738 17.9177 3.75234 18.0027L2.78837 18.4022L2.82227 18.4835L2.70675 18.4361L2.78837 18.4022L2.32005 17.2754L2.23531 17.3106L2.28477 17.1903L2.32005 17.2754L3.28021 16.8745C3.47218 16.8029 3.64788 16.6441 3.73089 16.4477C3.81806 16.2526 3.82082 16.0202 3.73677 15.823C3.65549 15.6245 3.48843 15.463 3.28782 15.3872C3.08963 15.308 2.85236 15.3215 2.66593 15.4076L1.71131 15.8061L1.74901 15.896L1.62103 15.8438L1.71131 15.8061L1.24817 14.6955L1.15652 14.7338L1.20978 14.6034L1.24817 14.6955L2.20142 14.298C2.39476 14.2254 2.57254 14.0653 2.6559 13.8667C2.7441 13.6696 2.74652 13.4347 2.66178 13.2358C2.57981 13.0352 2.41102 12.872 2.20868 12.7955C2.00842 12.7153 1.76872 12.7291 1.58056 12.8159L0.633201 13.2113L0.67367 13.3085L0.535663 13.2518L0.633201 13.2113L0.246163 12.2836C0.213996 12.2992 0.181483 12.3137 0.148626 12.3272L0.206041 12.1871L0.246163 12.2836C0.679204 12.0754 1.032 11.7033 1.21324 11.2574C1.39794 10.8143 1.4097 10.3028 1.24921 9.85003L1.14994 9.89154L1.20944 9.74661C1.22396 9.78051 1.23711 9.8151 1.24921 9.85003L5.74771 7.97087L10.341 6.04052L14.982 4.087L15.0318 4.0659L19.4445 2.20853C19.4314 2.1812 19.4193 2.15388 19.4075 2.12586L19.5258 2.17429L19.4445 2.20853C19.6514 2.64364 20.0246 2.99679 20.4711 3.17595C20.9183 3.35996 21.434 3.36619 21.8857 3.19671L21.8539 3.12165L21.9629 3.16627C21.9373 3.17699 21.9117 3.18737 21.8857 3.19671L22.2949 4.16724L22.3689 4.13611L22.326 4.24091L22.2949 4.16724L21.3258 4.57572C21.1366 4.64767 20.9664 4.80262 20.8855 4.99528C20.8011 5.18655 20.7993 5.4131 20.8816 5.60506C20.9612 5.79841 21.1241 5.95544 21.3195 6.02842C21.5129 6.1052 21.7418 6.09206 21.9248 6.00697L22.904 5.59468L22.8767 5.53L22.9683 5.56736L22.904 5.59468L23.3941 6.75891L23.4564 6.73263L23.4204 6.82083L23.3941 6.75891L22.4132 7.17224C22.2261 7.24314 22.059 7.39533 21.9795 7.58487C21.8961 7.77303 21.894 7.99578 21.9753 8.18497C22.0538 8.37521 22.2143 8.52947 22.4066 8.60106C22.5972 8.67647 22.8217 8.66332 23.0026 8.57962L23.9925 8.16249L23.97 8.10888L24.0457 8.14001L23.9925 8.16249L24.4923 9.3492L24.5431 9.32776L24.5134 9.3997L24.4923 9.3492L23.4999 9.76702C23.3146 9.83724 23.151 9.98666 23.0724 10.1734C22.9905 10.3588 22.9884 10.5778 23.0683 10.7642C23.1458 10.9513 23.3038 11.1032 23.493 11.1737C23.6808 11.2474 23.9008 11.2349 24.0796 11.1519L25.081 10.7306L25.063 10.6881L25.1232 10.7127L25.081 10.7306L25.5026 11.7313C25.5161 11.7261 25.5296 11.7209 25.5431 11.7157L25.5199 11.7728Z" fill="#0066CC"/>
<path d="M14.982 4.08691L10.341 6.04044L5.7477 7.97079L1.2492 9.84995C1.40969 10.3027 1.39793 10.8143 1.21323 11.2573C1.03199 11.7032 0.679195 12.0753 0.246155 12.2836L0.633193 13.2112L1.58056 12.8159C1.76871 12.729 2.00841 12.7152 2.20867 12.7955C2.41101 12.8719 2.5798 13.0351 2.66177 13.2358C2.74651 13.4346 2.74409 13.6695 2.65589 13.8666C2.57254 14.0652 2.39475 14.2253 2.20141 14.298L1.24817 14.6954L1.7113 15.806L2.66592 15.4075C2.85235 15.3214 3.08963 15.3079 3.28781 15.3871C3.48842 15.4629 3.65548 15.6244 3.73676 15.8229C3.82081 16.0201 3.81805 16.2525 3.73089 16.4476C3.64787 16.644 3.47217 16.8028 3.2802 16.8744L2.32004 17.2753L2.78836 18.4022L3.75233 18.0027C3.93737 17.9176 4.16981 17.9051 4.36488 17.9836C4.56203 18.0583 4.72598 18.2171 4.80518 18.4122C4.88716 18.6062 4.88405 18.8338 4.79827 19.0251C4.71629 19.2177 4.54474 19.372 4.35554 19.4426L3.37636 19.8483L3.77343 20.806C4.22411 20.6275 4.74569 20.6275 5.19949 20.8109C5.64221 20.9848 6.01576 21.3297 6.22917 21.7589L15.3206 17.9221L19.8769 16.0038L14.982 4.08691ZM3.54861 11.6627C3.48946 11.688 3.42132 11.6603 3.39642 11.6011C3.37117 11.542 3.39884 11.4739 3.45799 11.4489L3.45868 11.4486L5.07047 10.7814L5.69582 9.38267L5.69617 9.38198C5.719 9.33044 5.77953 9.30727 5.83106 9.33044C5.85354 9.34047 5.87049 9.35776 5.88052 9.37817L6.73623 11.0948L7.93331 8.46228V8.46159C7.95199 8.42112 7.99972 8.40314 8.04054 8.42147C8.05783 8.42942 8.07132 8.44291 8.07928 8.45917L8.95435 10.2159L10.1698 7.54259C10.1833 7.5125 10.2185 7.49901 10.2483 7.51215C10.2614 7.51803 10.2715 7.52841 10.2773 7.54017L11.1732 9.33701L12.4073 6.62255C12.4159 6.60318 12.4384 6.59454 12.4578 6.60318C12.4661 6.60664 12.4723 6.61321 12.4761 6.62048L12.96 7.55954L14.5832 6.88715C14.5967 6.88162 14.6122 6.88819 14.6178 6.90168C14.6233 6.91482 14.6171 6.93038 14.6036 6.93592L12.9572 7.63356C12.9409 7.64013 12.9223 7.63321 12.9143 7.61799L12.445 6.72562L11.2219 9.47605C11.2105 9.502 11.1804 9.51341 11.1548 9.502C11.1438 9.49715 11.1351 9.48816 11.1299 9.47813L10.2279 7.7055L9.02352 10.4137C9.00727 10.45 8.96438 10.4667 8.92806 10.4504C8.9125 10.4435 8.90039 10.4314 8.89313 10.4172L8.89278 10.4165L8.01183 8.68365L6.82546 11.3511C6.80437 11.3984 6.74937 11.4195 6.70198 11.3984C6.68158 11.3895 6.66636 11.3739 6.65667 11.3556L6.65633 11.3549L5.79647 9.66387L5.25137 10.9094C5.23995 10.9357 5.2192 10.955 5.19499 10.9654L5.19395 10.9658L3.54861 11.6627ZM4.60285 14.18C4.58936 14.1855 4.57379 14.1793 4.56826 14.1658C4.56272 14.1523 4.5693 14.1371 4.58244 14.1316L15.6374 9.40446C15.6966 9.37955 15.7647 9.40688 15.79 9.46568C15.8152 9.52482 15.7879 9.59296 15.7287 9.61821C15.7284 9.61821 15.7277 9.61856 15.7274 9.6189L4.60285 14.18ZM5.4838 16.2836C5.47031 16.2892 5.45475 16.283 5.44921 16.2695C5.44368 16.256 5.45025 16.2408 5.46339 16.2352L16.5184 11.5081C16.5775 11.4832 16.6457 11.5105 16.6709 11.5693C16.6962 11.6285 16.6688 11.6966 16.6097 11.7218C16.6093 11.7218 16.6087 11.7222 16.6083 11.7225L5.4838 16.2836ZM15.2179 16.3815L12.4346 17.5433C11.5066 17.9293 10.5869 18.325 9.66167 18.7162L6.88945 19.8984C6.85832 19.9119 6.82235 19.8974 6.80886 19.8663L6.80852 19.8656L6.17763 18.3921C6.16138 18.3544 6.17902 18.3108 6.21637 18.2946L6.21775 18.2942L8.98064 17.111L11.748 15.9371C12.6694 15.5438 13.5957 15.1623 14.5195 14.7749C15.4434 14.3865 16.3721 14.0105 17.2987 13.6297L17.3004 13.629C17.3495 13.609 17.4052 13.6325 17.4253 13.6813L17.4256 13.6816C17.6349 14.1983 17.8324 14.7203 18.0243 15.2259L15.2179 16.3815Z" fill="white"/>
<path d="M25.081 10.7306L24.0796 11.1519C23.9008 11.2349 23.6808 11.2473 23.493 11.1737C23.3038 11.1031 23.1458 10.9513 23.0683 10.7642C22.9884 10.5777 22.9905 10.3588 23.0724 10.1734C23.151 9.98662 23.3146 9.8372 23.5 9.76699L24.4923 9.34917L23.9925 8.16246L23.0026 8.57959C22.8217 8.66329 22.5972 8.67643 22.4066 8.60103C22.2143 8.52943 22.0538 8.37517 21.9753 8.18494C21.894 7.99574 21.8961 7.773 21.9795 7.58484C22.059 7.3953 22.2261 7.24311 22.4132 7.1722L23.3941 6.75888L22.904 5.59465L21.9248 6.00694C21.7419 6.09202 21.5129 6.10517 21.3195 6.02838C21.1241 5.9554 20.9612 5.79837 20.8816 5.60503C20.7993 5.41306 20.8011 5.18651 20.8855 4.99524C20.9664 4.80259 21.1366 4.64763 21.3258 4.57569L22.2949 4.16721L21.8857 3.19667C21.434 3.36615 20.9183 3.35993 20.4711 3.17592C20.0246 2.99675 19.6514 2.64361 19.4445 2.2085L15.0318 4.06587L20.0892 15.9146L24.3726 14.1112C24.2363 13.6536 24.2716 13.1525 24.4663 12.7291C24.6704 12.2739 25.0526 11.9118 25.5026 11.7312L25.081 10.7306ZM22.5017 13.6394C22.4077 13.8968 22.2033 14.1136 21.9483 14.2209C21.6952 14.3316 21.3949 14.3312 21.14 14.2205C20.8834 14.1147 20.6755 13.8895 20.578 13.6363L19.9713 12.2258L19.3684 10.8136L18.7739 9.39794L17.6013 6.56L17.0203 5.13878C16.9082 4.89148 16.8937 4.58572 16.9981 4.32873C17.0977 4.06932 17.3077 3.85523 17.5643 3.75215C17.8196 3.64597 18.1177 3.65219 18.3671 3.76564C18.6186 3.87494 18.8171 4.09769 18.9091 4.34776L19.4902 5.76897L20.6627 8.60726L21.2573 10.0226L21.8601 11.4348L22.4665 12.8453C22.5806 13.086 22.6 13.3835 22.5017 13.6394Z" fill="white"/>
<path d="M21.9196 14.1521C22.4032 13.9496 22.631 13.3935 22.4285 12.9099L18.8355 4.3301C18.633 3.84656 18.0769 3.61873 17.5933 3.82124C17.1098 4.02372 16.882 4.57986 17.0845 5.0634L20.6775 13.6432C20.88 14.1267 21.4361 14.3545 21.9196 14.1521Z" fill="#70B2F4"/>
<path d="M17.9554 15.1975L6.86562 19.8416L6.24646 18.3631L17.3363 13.719L17.9554 15.1975Z" fill="#70B2F4"/>
<path d="M22.4665 12.8455L21.8602 11.435L21.2573 10.0227L20.6627 8.6074L19.4902 5.76912L18.9091 4.3479C18.8171 4.09783 18.6186 3.87508 18.3671 3.76579C18.1177 3.65234 17.8196 3.64611 17.5643 3.7523C17.3077 3.85537 17.0977 4.06947 16.9981 4.32888C16.8937 4.58587 16.9082 4.89162 17.0203 5.13893L17.6013 6.56014L18.7739 9.39808L19.3684 10.8138L19.9713 12.226L20.578 13.6365C20.6755 13.8897 20.8834 14.1148 21.14 14.2207C21.3949 14.3314 21.6952 14.3317 21.9484 14.221C22.2033 14.1138 22.4077 13.8969 22.5018 13.6396C22.6 13.3836 22.5806 13.0862 22.4665 12.8455ZM21.2058 14.0706C20.9899 13.9737 20.8256 13.7932 20.7423 13.5676L20.1626 12.1457L19.5794 10.7252L18.988 9.3085L17.7881 6.48197L17.1832 5.07079C17.0811 4.85254 17.0677 4.60904 17.1503 4.38733C17.2306 4.16701 17.4042 3.98231 17.6221 3.8903C17.839 3.79519 18.0946 3.79553 18.3128 3.88996C18.5338 3.98334 18.7071 4.16631 18.7967 4.39494L19.4013 5.80613L20.6015 8.63299L21.193 10.0497L21.7761 11.4702L22.3558 12.8918C22.4561 13.1163 22.4644 13.3684 22.3759 13.5912C22.2897 13.8136 22.1106 13.9955 21.8909 14.0834C21.672 14.174 21.4188 14.1677 21.2058 14.0706Z" fill="#0066CC"/>
<path d="M20.0837 16.1977C20.0249 16.223 19.9567 16.1953 19.9318 16.1368L19.9315 16.1365C19.9311 16.1361 19.9308 16.1351 19.9308 16.1351L19.8768 16.004L14.982 4.0871L14.9439 3.99475C14.9384 3.98161 14.945 3.96605 14.9584 3.96051C14.9719 3.95498 14.9872 3.9612 14.9927 3.97469L15.0318 4.06601L20.0892 15.9148L20.1449 16.0452C20.1452 16.0459 20.1456 16.0466 20.1456 16.0473C20.1695 16.1061 20.1421 16.1728 20.0837 16.1977Z" fill="#0066CC"/>
<path d="M17.4256 13.6816L17.4253 13.6812C17.4052 13.6325 17.3495 13.6089 17.3004 13.629L17.2987 13.6297C16.3721 14.0105 15.4434 14.3865 14.5195 14.7749C13.5957 15.1623 12.6694 15.5438 11.748 15.937L8.98063 17.111L6.21775 18.2942L6.21637 18.2946C6.17901 18.3108 6.16137 18.3544 6.17763 18.3921L6.80851 19.8655L6.80886 19.8662C6.82235 19.8974 6.85832 19.9119 6.88945 19.8984L9.66167 18.7162C10.5869 18.325 11.5066 17.9293 12.4346 17.5433L15.2179 16.3815L18.0243 15.2259C17.8324 14.7202 17.6349 14.1983 17.4256 13.6816ZM6.84172 19.7846L6.89948 19.7607L6.34365 18.4039L6.27517 18.4319L6.31529 18.3343L6.34365 18.4039L9.05707 17.2932L11.8348 16.1449C12.7618 15.7645 13.6835 15.3715 14.6077 14.9852C15.5032 14.6116 16.3939 14.227 17.2859 13.8459C17.2727 13.8161 17.2599 13.786 17.2468 13.7563H17.2471L17.3737 13.8082C17.3443 13.8206 17.3153 13.8331 17.2859 13.8459C17.4778 14.2844 17.6798 14.7195 17.8863 15.1692L15.148 16.3355L12.3865 17.4956C11.4661 17.8837 10.5374 18.262 9.61428 18.6449L6.89948 19.7607L6.92265 19.8178L6.84172 19.7846Z" fill="#0066CC"/>
<path d="M14.6036 6.93594L12.9572 7.63358C12.941 7.64015 12.9223 7.63323 12.9143 7.61802L12.445 6.72565L11.2219 9.47608C11.2105 9.50202 11.1804 9.51343 11.1548 9.50202C11.1438 9.49718 11.1351 9.48818 11.1299 9.47815L10.2279 7.70552L9.02354 10.4138C9.00728 10.4501 8.96439 10.4667 8.92808 10.4504C8.91251 10.4435 8.90041 10.4314 8.89314 10.4172L8.8928 10.4165L8.01184 8.68367L6.82548 11.3511C6.80438 11.3985 6.74939 11.4196 6.702 11.3985C6.68159 11.3895 6.66637 11.3739 6.65669 11.3556L6.65634 11.3549L5.79649 9.66389L5.25138 10.9094C5.23997 10.9357 5.21922 10.9551 5.19501 10.9654L5.19397 10.9658L3.54862 11.6627C3.48948 11.688 3.42134 11.6603 3.39643 11.6012C3.37119 11.542 3.39886 11.4739 3.458 11.449L3.45869 11.4486L5.07049 10.7814L5.69584 9.38269L5.69618 9.382C5.71901 9.33046 5.77954 9.30729 5.83108 9.33046C5.85356 9.34049 5.87051 9.35779 5.88054 9.37819L6.73624 11.0948L7.93333 8.46231V8.46161C7.95201 8.42115 7.99974 8.40316 8.04055 8.42149C8.05785 8.42945 8.07133 8.44294 8.07929 8.45919L8.95436 10.2159L10.1698 7.54261C10.1833 7.51252 10.2186 7.49903 10.2483 7.51218C10.2614 7.51806 10.2715 7.52843 10.2773 7.54019L11.1732 9.33703L12.4073 6.62258C12.4159 6.60321 12.4384 6.59456 12.4578 6.60321C12.4661 6.60667 12.4723 6.61324 12.4761 6.6205L12.96 7.55956L14.5832 6.88717C14.5967 6.88164 14.6123 6.88821 14.6178 6.9017C14.6233 6.91484 14.6171 6.93041 14.6036 6.93594Z" fill="#0066CC"/>
<path d="M15.7287 9.61823C15.7284 9.61823 15.7277 9.61857 15.7273 9.61892L4.60284 14.18C4.58935 14.1856 4.57379 14.1793 4.56825 14.1658C4.56272 14.1524 4.56929 14.1371 4.58243 14.1316L15.6374 9.40447C15.6966 9.37957 15.7647 9.40689 15.79 9.46569C15.8152 9.52484 15.7879 9.59298 15.7287 9.61823Z" fill="#0066CC"/>
<path d="M16.6097 11.722C16.6094 11.722 16.6087 11.7223 16.6083 11.7227L5.48382 16.2838C5.47033 16.2893 5.45477 16.2831 5.44923 16.2696C5.4437 16.2561 5.45027 16.2409 5.46342 16.2354L16.5184 11.5082C16.5775 11.4833 16.6457 11.5107 16.6709 11.5695C16.6962 11.6286 16.6689 11.6967 16.6097 11.722Z" fill="#0066CC"/>
<path d="M18.1433 4.67829L21.7634 13.2204C21.7884 13.2795 21.7609 13.3476 21.7018 13.3727C21.6427 13.3977 21.5746 13.3701 21.5496 13.311L21.5492 13.3102L18.002 4.73744C17.9859 4.69835 18.0044 4.6536 18.0435 4.63741C18.0824 4.62136 18.1269 4.63966 18.1433 4.67829Z" fill="#0066CC"/>
<path d="M42.5819 5.364L38.0999 18H34.2479L29.7659 5.364H33.0419L36.1739 14.904L39.3239 5.364H42.5819ZM53.3363 12.816C53.3363 13.104 53.3183 13.404 53.2823 13.716H46.3163C46.3643 14.34 46.5623 14.82 46.9103 15.156C47.2703 15.48 47.7083 15.642 48.2243 15.642C48.9923 15.642 49.5263 15.318 49.8263 14.67H53.1023C52.9343 15.33 52.6283 15.924 52.1843 16.452C51.7523 16.98 51.2063 17.394 50.5463 17.694C49.8863 17.994 49.1483 18.144 48.3323 18.144C47.3483 18.144 46.4723 17.934 45.7043 17.514C44.9363 17.094 44.3363 16.494 43.9043 15.714C43.4723 14.934 43.2563 14.022 43.2563 12.978C43.2563 11.934 43.4663 11.022 43.8863 10.242C44.3183 9.462 44.9183 8.862 45.6863 8.442C46.4543 8.022 47.3363 7.812 48.3323 7.812C49.3043 7.812 50.1683 8.016 50.9243 8.424C51.6803 8.832 52.2683 9.414 52.6883 10.17C53.1203 10.926 53.3363 11.808 53.3363 12.816ZM50.1863 12.006C50.1863 11.478 50.0063 11.058 49.6463 10.746C49.2863 10.434 48.8363 10.278 48.2963 10.278C47.7803 10.278 47.3423 10.428 46.9823 10.728C46.6343 11.028 46.4183 11.454 46.3343 12.006H50.1863ZM58.0381 9.63C58.3981 9.078 58.8481 8.646 59.3881 8.334C59.9281 8.01 60.5281 7.848 61.1881 7.848V11.106H60.3421C59.5741 11.106 58.9981 11.274 58.6141 11.61C58.2301 11.934 58.0381 12.51 58.0381 13.338V18H54.9601V7.956H58.0381V9.63ZM64.2073 6.912C63.6673 6.912 63.2233 6.756 62.8753 6.444C62.5393 6.12 62.3713 5.724 62.3713 5.256C62.3713 4.776 62.5393 4.38 62.8753 4.068C63.2233 3.744 63.6673 3.582 64.2073 3.582C64.7353 3.582 65.1673 3.744 65.5033 4.068C65.8513 4.38 66.0253 4.776 66.0253 5.256C66.0253 5.724 65.8513 6.12 65.5033 6.444C65.1673 6.756 64.7353 6.912 64.2073 6.912ZM65.7373 7.956V18H62.6593V7.956H65.7373ZM73.0079 10.512H71.3519V18H68.2739V10.512H67.1579V7.956H68.2739V7.668C68.2739 6.432 68.6279 5.496 69.3359 4.86C70.0439 4.212 71.0819 3.888 72.4499 3.888C72.6779 3.888 72.8459 3.894 72.9539 3.906V6.516C72.3659 6.48 71.9519 6.564 71.7119 6.768C71.4719 6.972 71.3519 7.338 71.3519 7.866V7.956H73.0079V10.512ZM76.0023 6.912C75.4623 6.912 75.0183 6.756 74.6703 6.444C74.3343 6.12 74.1663 5.724 74.1663 5.256C74.1663 4.776 74.3343 4.38 74.6703 4.068C75.0183 3.744 75.4623 3.582 76.0023 3.582C76.5303 3.582 76.9623 3.744 77.2983 4.068C77.6463 4.38 77.8203 4.776 77.8203 5.256C77.8203 5.724 77.6463 6.12 77.2983 6.444C76.9623 6.756 76.5303 6.912 76.0023 6.912ZM77.5323 7.956V18H74.4543V7.956H77.5323ZM79.1509 12.978C79.1509 11.934 79.3609 11.022 79.7809 10.242C80.2129 9.462 80.8069 8.862 81.5629 8.442C82.3309 8.022 83.2069 7.812 84.1909 7.812C85.4509 7.812 86.5009 8.142 87.3409 8.802C88.1929 9.462 88.7509 10.392 89.0149 11.592H85.7389C85.4629 10.824 84.9289 10.44 84.1369 10.44C83.5729 10.44 83.1229 10.662 82.7869 11.106C82.4509 11.538 82.2829 12.162 82.2829 12.978C82.2829 13.794 82.4509 14.424 82.7869 14.868C83.1229 15.3 83.5729 15.516 84.1369 15.516C84.9289 15.516 85.4629 15.132 85.7389 14.364H89.0149C88.7509 15.54 88.1929 16.464 87.3409 17.136C86.4889 17.808 85.4389 18.144 84.1909 18.144C83.2069 18.144 82.3309 17.934 81.5629 17.514C80.8069 17.094 80.2129 16.494 79.7809 15.714C79.3609 14.934 79.1509 14.022 79.1509 12.978ZM90.0493 12.96C90.0493 11.928 90.2413 11.022 90.6253 10.242C91.0213 9.462 91.5553 8.862 92.2273 8.442C92.8993 8.022 93.6493 7.812 94.4773 7.812C95.1853 7.812 95.8033 7.956 96.3313 8.244C96.8713 8.532 97.2853 8.91 97.5733 9.378V7.956H100.651V18H97.5733V16.578C97.2733 17.046 96.8533 17.424 96.3133 17.712C95.7853 18 95.1673 18.144 94.4593 18.144C93.6433 18.144 92.8993 17.934 92.2273 17.514C91.5553 17.082 91.0213 16.476 90.6253 15.696C90.2413 14.904 90.0493 13.992 90.0493 12.96ZM97.5733 12.978C97.5733 12.21 97.3573 11.604 96.9253 11.16C96.5053 10.716 95.9893 10.494 95.3773 10.494C94.7653 10.494 94.2433 10.716 93.8113 11.16C93.3913 11.592 93.1813 12.192 93.1813 12.96C93.1813 13.728 93.3913 14.34 93.8113 14.796C94.2433 15.24 94.7653 15.462 95.3773 15.462C95.9893 15.462 96.5053 15.24 96.9253 14.796C97.3573 14.352 97.5733 13.746 97.5733 12.978ZM111.968 5.364V7.83H108.62V18H105.542V7.83H102.194V5.364H111.968ZM115.061 6.912C114.521 6.912 114.077 6.756 113.729 6.444C113.393 6.12 113.225 5.724 113.225 5.256C113.225 4.776 113.393 4.38 113.729 4.068C114.077 3.744 114.521 3.582 115.061 3.582C115.589 3.582 116.021 3.744 116.357 4.068C116.705 4.38 116.879 4.776 116.879 5.256C116.879 5.724 116.705 6.12 116.357 6.444C116.021 6.756 115.589 6.912 115.061 6.912ZM116.591 7.956V18H113.513V7.956H116.591ZM118.209 12.978C118.209 11.934 118.419 11.022 118.839 10.242C119.271 9.462 119.865 8.862 120.621 8.442C121.389 8.022 122.265 7.812 123.249 7.812C124.509 7.812 125.559 8.142 126.399 8.802C127.251 9.462 127.809 10.392 128.073 11.592H124.797C124.521 10.824 123.987 10.44 123.195 10.44C122.631 10.44 122.181 10.662 121.845 11.106C121.509 11.538 121.341 12.162 121.341 12.978C121.341 13.794 121.509 14.424 121.845 14.868C122.181 15.3 122.631 15.516 123.195 15.516C123.987 15.516 124.521 15.132 124.797 14.364H128.073C127.809 15.54 127.251 16.464 126.399 17.136C125.547 17.808 124.497 18.144 123.249 18.144C122.265 18.144 121.389 17.934 120.621 17.514C119.865 17.094 119.271 16.494 118.839 15.714C118.419 14.934 118.209 14.022 118.209 12.978ZM135.858 18L132.798 13.788V18H129.72V4.68H132.798V12.042L135.84 7.956H139.638L135.462 12.996L139.674 18H135.858ZM150.315 12.816C150.315 13.104 150.297 13.404 150.261 13.716H143.295C143.343 14.34 143.541 14.82 143.889 15.156C144.249 15.48 144.687 15.642 145.203 15.642C145.971 15.642 146.505 15.318 146.805 14.67H150.081C149.913 15.33 149.607 15.924 149.163 16.452C148.731 16.98 148.185 17.394 147.525 17.694C146.865 17.994 146.127 18.144 145.311 18.144C144.327 18.144 143.451 17.934 142.683 17.514C141.915 17.094 141.315 16.494 140.883 15.714C140.451 14.934 140.235 14.022 140.235 12.978C140.235 11.934 140.445 11.022 140.865 10.242C141.297 9.462 141.897 8.862 142.665 8.442C143.433 8.022 144.315 7.812 145.311 7.812C146.283 7.812 147.147 8.016 147.903 8.424C148.659 8.832 149.247 9.414 149.667 10.17C150.099 10.926 150.315 11.808 150.315 12.816ZM147.165 12.006C147.165 11.478 146.985 11.058 146.625 10.746C146.265 10.434 145.815 10.278 145.275 10.278C144.759 10.278 144.321 10.428 143.961 10.728C143.613 11.028 143.397 11.454 143.313 12.006H147.165ZM157.537 15.39V18H155.971C154.855 18 153.985 17.73 153.361 17.19C152.737 16.638 152.425 15.744 152.425 14.508V10.512H151.201V7.956H152.425V5.508H155.503V7.956H157.519V10.512H155.503V14.544C155.503 14.844 155.575 15.06 155.719 15.192C155.863 15.324 156.103 15.39 156.439 15.39H157.537Z" fill="#0F2137"/>
</svg>
