<svg width="165" height="25" viewBox="0 0 165 25" fill="none" xmlns="http://www.w3.org/2000/svg">
<path d="M31.9953 12.1722L31.9918 12.1644L31.4299 10.8139C31.4173 10.785 31.384 10.7712 31.3547 10.7833L30.0487 11.3271C29.8434 11.4204 29.6121 11.4304 29.4059 11.35C29.2006 11.2726 29.0307 11.1079 28.9477 10.9047C28.8617 10.7024 28.8651 10.4664 28.9542 10.2667C29.0428 10.0648 29.2114 9.90831 29.421 9.82921L30.7274 9.28539V9.28496C30.7624 9.27026 30.7789 9.23006 30.7642 9.19505L30.0915 7.57917C30.076 7.54243 30.0336 7.52471 29.9969 7.54027L28.6905 8.08408C28.4877 8.17616 28.2617 8.18523 28.0589 8.10699C27.8575 8.03048 27.6906 7.86923 27.6094 7.66995C27.5251 7.4711 27.5285 7.23983 27.6158 7.04357C27.7027 6.84516 27.8674 6.69256 28.0749 6.61388L29.3808 6.07007C29.4236 6.05192 29.444 6.00264 29.4258 5.96027L28.7532 4.34397C28.7342 4.29987 28.6831 4.27826 28.6386 4.29728L27.3318 4.84109C27.1312 4.9323 26.9103 4.94052 26.7115 4.86314C26.5131 4.78835 26.3501 4.62971 26.2701 4.43345C26.188 4.23892 26.191 4.01197 26.2775 3.81961C26.3631 3.62465 26.5235 3.47551 26.7279 3.39813L28.0343 2.85475C28.0853 2.83314 28.1095 2.77435 28.0883 2.72334L27.5052 1.32144V1.32101C27.4827 1.26784 27.4217 1.2432 27.369 1.26568C26.8304 1.49133 26.2053 1.49263 25.6671 1.26871C25.1272 1.04824 24.6858 0.607313 24.4645 0.0695528L24.4641 0.0691201C24.4403 0.0120598 24.3746 -0.0151743 24.3171 0.00860075L24.3162 0.00903346L12.8192 4.79873L7.07245 7.19703L1.33044 9.60745L1.32957 9.60788H1.32914C1.25911 9.6377 1.22626 9.71854 1.25609 9.78857C1.48044 10.3181 1.4839 10.9346 1.2643 11.4667C1.04859 12.0006 0.614145 12.4385 0.0824375 12.6602H0.0820048C0.0137047 12.6892 -0.0182838 12.7674 0.0106784 12.8353L0.599016 14.235V14.2355C0.627114 14.3025 0.704493 14.334 0.771497 14.3059L2.07613 13.7578C2.26979 13.6692 2.47685 13.6614 2.66792 13.7336C2.85683 13.8045 3.01288 13.9545 3.09026 14.1417C3.1698 14.3275 3.16807 14.5445 3.08637 14.7296C3.00424 14.9167 2.85337 15.0598 2.65366 15.1368L1.34903 15.6853C1.28548 15.7117 1.25565 15.7848 1.28246 15.8483L1.96027 17.462C1.98664 17.5243 2.0584 17.5537 2.12065 17.5273L3.42485 16.9792C3.62024 16.8897 3.83033 16.8815 4.02356 16.955C4.21463 17.0263 4.37328 17.1784 4.45152 17.3678C4.53193 17.5558 4.52976 17.7759 4.4472 17.963C4.3642 18.1524 4.21074 18.2976 4.0093 18.375L2.7051 18.9231L2.70423 18.9236C2.64631 18.9482 2.61864 19.0152 2.64328 19.0736L3.3237 20.6864L3.32413 20.6873C3.3479 20.7431 3.41231 20.769 3.46808 20.7456L4.77141 20.1945C4.96896 20.1033 5.18467 20.0938 5.38179 20.1685C5.57762 20.2412 5.74016 20.3959 5.82056 20.5896C5.90356 20.7824 5.90226 21.0076 5.81754 21.2C5.73367 21.3945 5.57459 21.5449 5.36969 21.624L4.06679 22.1752C4.02097 22.1942 3.99892 22.2474 4.01837 22.2932L4.59115 23.648C4.60887 23.6891 4.65513 23.7102 4.69749 23.6955L4.70268 23.6938L4.71046 23.6912C5.25514 23.4703 5.88238 23.4794 6.41625 23.7098C6.95228 23.9368 7.38499 24.3803 7.59897 24.915L7.59941 24.9167C7.62707 24.9825 7.70229 25.0136 7.768 24.9863L7.77016 24.9855L7.77794 24.982L10.1853 23.9817L19.2754 20.2044L27.0327 16.9731L30.7685 15.4169C30.8618 15.378 30.9081 15.2716 30.8722 15.1765L30.8696 15.1701L30.867 15.1627C30.6288 14.6548 30.6012 14.0444 30.8031 13.5019C31.0002 12.9581 31.4242 12.4925 31.9663 12.2435L31.9689 12.2422C31.9953 12.2301 32.0074 12.1985 31.9953 12.1722ZM31.895 12.2141L31.892 12.2063L31.8734 12.1622C31.311 12.3879 30.8333 12.8405 30.5783 13.4094C30.3349 13.9385 30.2908 14.5649 30.4611 15.1368L30.6228 15.0689L30.5216 15.3157L30.519 15.3071C30.4974 15.2509 30.4784 15.1943 30.4611 15.1368L25.1077 17.3907L24.8423 17.5022L19.1478 19.8997L7.78529 24.695C7.80474 24.7339 7.8229 24.7737 7.84019 24.8139L7.669 24.7438L7.67678 24.7408L7.78529 24.695C7.51857 24.1585 7.0517 23.7275 6.49838 23.5101C5.93123 23.281 5.27934 23.281 4.71608 23.504L4.7485 23.5823L4.63697 23.5365L4.64518 23.5334C4.66853 23.5231 4.6923 23.5136 4.71608 23.504L4.21982 22.3071L4.13682 22.3416L4.18524 22.2236L4.21982 22.3071L5.44361 21.8C5.68007 21.7118 5.89448 21.519 5.99693 21.2782C6.10414 21.0392 6.10803 20.7547 6.00558 20.5122C5.90659 20.2684 5.70168 20.07 5.45528 19.9766C5.21147 19.8785 4.92098 19.8941 4.68971 20.0004L3.48494 20.4997L3.5273 20.6013L3.38292 20.542L3.48494 20.4997L2.89963 19.0913L2.79372 19.1354L2.85553 18.985L2.89963 19.0913L4.09964 18.5903C4.33956 18.5008 4.55916 18.3024 4.66291 18.0568C4.77184 17.813 4.7753 17.5225 4.67026 17.2761C4.56867 17.028 4.35988 16.8261 4.10915 16.7315C3.86146 16.6325 3.56491 16.6493 3.33191 16.757L2.13881 17.255L2.18593 17.3674L2.02598 17.3021L2.13881 17.255L1.55998 15.8669L1.44543 15.9149L1.512 15.7519L1.55998 15.8669L2.75135 15.3702C2.993 15.2794 3.21519 15.0793 3.31937 14.8312C3.4296 14.5848 3.43263 14.2912 3.32672 14.0427C3.22427 13.7919 3.01332 13.5879 2.76043 13.4924C2.51014 13.3921 2.21057 13.4094 1.9754 13.5179L0.791381 14.012L0.841959 14.1334L0.669477 14.0626L0.791381 14.012L0.307657 12.8526C0.267455 12.872 0.22682 12.8902 0.185754 12.9071L0.257512 12.732L0.307657 12.8526C0.848876 12.5924 1.2898 12.1272 1.51632 11.57C1.74716 11.0163 1.76186 10.3769 1.56128 9.81105L1.43721 9.86292L1.51156 9.6818C1.52972 9.72416 1.54615 9.76739 1.56128 9.81105L7.18355 7.46246L12.9243 5.04989L18.7246 2.60835L18.7869 2.58198L24.302 0.260622C24.2855 0.226472 24.2704 0.192321 24.2557 0.157306L24.4035 0.217826L24.302 0.260622C24.5605 0.804434 25.0269 1.24579 25.585 1.46972C26.1439 1.69969 26.7884 1.70747 27.353 1.49565L27.3132 1.40185L27.4494 1.45761C27.4174 1.47101 27.3854 1.48398 27.353 1.49565L27.8644 2.70864L27.9569 2.66974L27.9033 2.80072L27.8644 2.70864L26.6531 3.21917C26.4167 3.30908 26.204 3.50274 26.1028 3.74353C25.9974 3.98258 25.9952 4.26572 26.0981 4.50564C26.1975 4.74729 26.4011 4.94354 26.6454 5.03476C26.887 5.13072 27.1732 5.1143 27.4019 5.00795L28.6256 4.49267L28.5915 4.41184L28.7061 4.45852L28.6256 4.49267L29.2382 5.94774L29.316 5.91488L29.271 6.02512L29.2382 5.94774L28.0122 6.46432C27.7784 6.55293 27.5696 6.74314 27.4702 6.98003C27.366 7.21519 27.3634 7.49358 27.465 7.73004C27.5631 7.9678 27.7637 8.16059 28.004 8.25008C28.2422 8.34431 28.5228 8.32789 28.7489 8.22327L29.986 7.70194L29.9579 7.63494L30.0526 7.67384L29.986 7.70194L30.6107 9.1851L30.6742 9.1583L30.6371 9.24822L30.6107 9.1851L29.3705 9.7073C29.1388 9.79506 28.9343 9.9818 28.8362 10.2152C28.7337 10.4469 28.7311 10.7206 28.831 10.9536C28.9278 11.1874 29.1254 11.3772 29.3618 11.4654C29.5966 11.5575 29.8715 11.5419 30.095 11.4382L31.3464 10.9116L31.324 10.8585L31.3992 10.8892L31.3464 10.9116L31.8734 12.1622C31.8902 12.1558 31.9071 12.1493 31.924 12.1428L31.895 12.2141Z" fill="#0066CC"/>
<path d="M18.7246 2.60836L12.9242 5.0499L7.18351 7.46247L1.56124 9.81106C1.76182 10.3769 1.74712 11.0163 1.51628 11.57C1.28976 12.1272 0.848835 12.5924 0.307617 12.8526L0.791342 14.012L1.97537 13.5179C2.21053 13.4094 2.5101 13.3921 2.76039 13.4924C3.01328 13.5879 3.22423 13.792 3.32668 14.0427C3.43259 14.2912 3.42957 14.5848 3.31933 14.8312C3.21515 15.0793 2.99296 15.2794 2.75131 15.3702L1.55994 15.8669L2.13877 17.255L3.33187 16.757C3.56487 16.6493 3.86142 16.6325 4.10911 16.7315C4.35984 16.8262 4.56863 17.028 4.67022 17.2762C4.77526 17.5226 4.7718 17.8131 4.66287 18.0569C4.55912 18.3024 4.33952 18.5008 4.0996 18.5903L2.89959 19.0913L3.4849 20.4997L4.68967 20.0004C4.92094 19.8941 5.21144 19.8785 5.45524 19.9766C5.70164 20.07 5.90655 20.2684 6.00554 20.5122C6.10799 20.7547 6.1041 21.0392 5.99689 21.2782C5.89444 21.519 5.68003 21.7118 5.44357 21.8L4.21978 22.3071L4.71604 23.5041C5.2793 23.281 5.93119 23.281 6.49834 23.5101C7.05166 23.7276 7.51853 24.1585 7.78525 24.695L19.1478 19.8997L24.8423 17.5022L18.7246 2.60836ZM4.43506 12.0767C4.36114 12.1082 4.27598 12.0736 4.24485 11.9997C4.21329 11.9258 4.24788 11.8406 4.3218 11.8095L4.32266 11.8091L6.3371 10.9752L7.11867 9.22705L7.1191 9.22618C7.14763 9.16177 7.22328 9.13281 7.28769 9.16177C7.31579 9.17431 7.33697 9.19592 7.34951 9.22143L8.41898 11.3668L9.91511 8.07674V8.07588C9.93845 8.0253 9.99811 8.00282 10.0491 8.02573C10.0707 8.03567 10.0876 8.05253 10.0975 8.07285L11.1912 10.2684L12.7102 6.9273C12.7271 6.88969 12.7712 6.87283 12.8084 6.88926C12.8248 6.89661 12.8373 6.90958 12.8447 6.92427L13.9643 9.16999L15.5067 5.77743C15.5175 5.75322 15.5456 5.74241 15.5698 5.75322C15.5802 5.75754 15.588 5.76576 15.5927 5.77483L16.1975 6.94848L18.2262 6.10812C18.243 6.10121 18.2625 6.10942 18.2694 6.12628C18.2763 6.14271 18.2685 6.16216 18.2517 6.16908L16.194 7.04099C16.1737 7.0492 16.1504 7.04056 16.1404 7.02154L15.5538 5.90625L14.0253 9.34376C14.011 9.37618 13.9734 9.39045 13.9414 9.37618C13.9276 9.37013 13.9168 9.35889 13.9103 9.34636L12.7829 7.13091L11.2777 10.5157C11.2573 10.5611 11.2037 10.5818 11.1584 10.5615C11.1389 10.5529 11.1238 10.5377 11.1147 10.52L11.1143 10.5191L10.0132 8.3534L8.5305 11.6872C8.50414 11.7464 8.4354 11.7728 8.37618 11.7464C8.35067 11.7352 8.33165 11.7157 8.31955 11.6928L8.31912 11.6919L7.24446 9.57849L6.56318 11.1351C6.54892 11.168 6.52298 11.1922 6.49272 11.2052L6.49143 11.2056L4.43506 12.0767ZM5.75265 15.2228C5.73579 15.2297 5.71634 15.2219 5.70943 15.2051C5.70251 15.1882 5.71072 15.1692 5.72715 15.1623L19.5438 9.25428C19.6177 9.22316 19.7029 9.25731 19.7344 9.33079C19.766 9.40471 19.7318 9.48987 19.6579 9.52143C19.6575 9.52143 19.6566 9.52186 19.6562 9.5223L5.75265 15.2228ZM6.85368 17.852C6.83682 17.8589 6.81737 17.8511 6.81045 17.8342C6.80353 17.8174 6.81175 17.7984 6.82817 17.7914L20.6448 11.8834C20.7187 11.8523 20.8039 11.8865 20.8354 11.9599C20.867 12.0339 20.8328 12.119 20.7589 12.1506C20.7585 12.1506 20.7576 12.151 20.7572 12.1514L6.85368 17.852ZM19.0194 17.9743L15.5408 19.4263C14.381 19.9088 13.2316 20.4033 12.0752 20.8922L8.61048 22.3698C8.57157 22.3866 8.52661 22.3685 8.50975 22.3295L8.50932 22.3287L7.72084 20.4872C7.70052 20.44 7.72257 20.3856 7.76925 20.3653L7.77098 20.3648L11.2241 18.886L14.6828 17.4188C15.8344 16.9273 16.992 16.4505 18.1466 15.9663C19.3013 15.4809 20.4619 15.011 21.62 14.5351L21.6222 14.5342C21.6836 14.5091 21.7532 14.5385 21.7782 14.5995L21.7787 14.5999C22.0402 15.2457 22.287 15.898 22.527 16.53L19.0194 17.9743Z" fill="white"/>
<path d="M31.3465 10.9117L30.095 11.4382C29.8715 11.5419 29.5966 11.5575 29.3619 11.4654C29.1254 11.3772 28.9278 11.1875 28.831 10.9536C28.7312 10.7206 28.7338 10.447 28.8362 10.2153C28.9343 9.98183 29.1388 9.79508 29.3705 9.70733L30.6107 9.18513L29.9861 7.70197L28.7489 8.2233C28.5228 8.32791 28.2422 8.34434 28.0041 8.2501C27.7637 8.16062 27.5631 7.96782 27.465 7.73007C27.3634 7.49361 27.366 7.21522 27.4702 6.98006C27.5696 6.74317 27.7784 6.55296 28.0123 6.46434L29.2382 5.94776L28.6257 4.4927L27.4019 5.00798C27.1732 5.11432 26.887 5.13075 26.6454 5.03478C26.4012 4.94357 26.1976 4.74732 26.0981 4.50567C25.9952 4.26575 25.9974 3.98261 26.1029 3.74355C26.204 3.50277 26.4167 3.30911 26.6532 3.21919L27.8644 2.70867L27.353 1.49568C26.7885 1.7075 26.1439 1.69972 25.585 1.46975C25.0269 1.24582 24.5605 0.804463 24.302 0.260651L18.7869 2.58201L25.1078 17.3907L30.4612 15.1368C30.2908 14.5649 30.3349 13.9385 30.5783 13.4094C30.8334 12.8405 31.311 12.3879 31.8734 12.1623L31.3465 10.9117ZM28.1229 14.5472C28.0054 14.8688 27.7499 15.1398 27.4313 15.2738C27.1149 15.4122 26.7396 15.4117 26.421 15.2734C26.1003 15.1411 25.8405 14.8597 25.7186 14.5433L24.9604 12.7804L24.2069 11.0154L23.4638 9.24608L21.9984 5.6992L21.2721 3.92295C21.1321 3.61387 21.1139 3.23173 21.2445 2.91054C21.369 2.58633 21.6313 2.31875 21.9521 2.18993C22.2711 2.05722 22.6438 2.065 22.9554 2.20679C23.2697 2.34339 23.5178 2.62178 23.6328 2.93432L24.3591 4.71057L25.8245 8.25789L26.5676 10.0268L27.3211 11.7918L28.0788 13.5546C28.2215 13.8555 28.2457 14.2273 28.1229 14.5472Z" fill="white"/>
<path d="M27.3953 15.1878C27.9996 14.9347 28.2844 14.2397 28.0313 13.6353L23.5407 2.91217C23.2876 2.30784 22.5926 2.0231 21.9882 2.2762C21.3839 2.52926 21.0992 3.22432 21.3523 3.82866L25.8428 14.5518C26.0959 15.1561 26.791 15.4408 27.3953 15.1878Z" fill="#70B2F4"/>
<path d="M22.4408 16.4945L8.58065 22.2988L7.80682 20.4509L21.667 14.6467L22.4408 16.4945Z" fill="#70B2F4"/>
<path d="M28.0788 13.5546L27.321 11.7918L26.5676 10.0268L25.8245 8.25786L24.359 4.71055L23.6328 2.9343C23.5178 2.62176 23.2697 2.34337 22.9554 2.20677C22.6437 2.06498 22.2711 2.0572 21.9521 2.18991C21.6313 2.31873 21.3689 2.58631 21.2444 2.91052C21.1139 3.23171 21.132 3.61385 21.2721 3.92293L21.9983 5.69918L23.4638 9.24606L24.2069 11.0154L24.9603 12.7804L25.7186 14.5433C25.8405 14.8597 26.1003 15.1411 26.421 15.2734C26.7396 15.4117 27.1148 15.4121 27.4313 15.2738C27.7499 15.1398 28.0053 14.8688 28.1229 14.5471C28.2457 14.2273 28.2215 13.8555 28.0788 13.5546ZM26.5032 15.0858C26.2334 14.9647 26.0281 14.7391 25.9239 14.4572L25.1994 12.6801L24.4706 10.9047L23.7314 9.1341L22.2318 5.60148L21.4757 3.83777C21.3482 3.565 21.3313 3.26067 21.4346 2.98358C21.5349 2.70821 21.7519 2.47738 22.0243 2.36239C22.2953 2.24351 22.6148 2.24394 22.8875 2.36196C23.1638 2.47867 23.3803 2.70735 23.4923 2.99309L24.2479 4.7568L25.748 8.28985L26.4872 10.0605L27.216 11.8359L27.9405 13.6126C28.0659 13.8931 28.0762 14.2082 27.9656 14.4866C27.8579 14.7646 27.634 14.992 27.3595 15.1018C27.0859 15.215 26.7694 15.2072 26.5032 15.0858Z" fill="#0066CC"/>
<path d="M25.1009 17.7443C25.0274 17.7758 24.9422 17.7413 24.9111 17.6682L24.9107 17.6678C24.9102 17.6673 24.9098 17.666 24.9098 17.666L24.8424 17.5022L18.7247 2.60833L18.6771 2.49291C18.6702 2.47648 18.6784 2.45703 18.6953 2.45011C18.7122 2.4432 18.7312 2.45098 18.7381 2.46784L18.7869 2.58196L25.1078 17.3907L25.1774 17.5537C25.1778 17.5545 25.1782 17.5554 25.1782 17.5562C25.2081 17.6297 25.1739 17.7132 25.1009 17.7443Z" fill="#0066CC"/>
<path d="M21.7786 14.5999L21.7782 14.5994C21.7531 14.5385 21.6835 14.5091 21.6221 14.5342L21.62 14.535C20.4619 15.011 19.3012 15.4809 18.1466 15.9663C16.9919 16.4505 15.8343 16.9273 14.6827 17.4188L11.224 18.886L7.77091 20.3648L7.76918 20.3652C7.7225 20.3855 7.70045 20.44 7.72077 20.4871L8.50925 22.3287L8.50969 22.3295C8.52654 22.3684 8.5715 22.3866 8.61041 22.3697L12.0752 20.8922C13.2315 20.4033 14.381 19.9087 15.5408 19.4263L19.0194 17.9743L22.5269 16.53C22.287 15.898 22.0401 15.2457 21.7786 14.5999ZM8.55075 22.2275L8.62294 22.1977L7.92826 20.5018L7.84267 20.5368L7.89282 20.4149L7.92826 20.5018L11.3195 19.1138L14.7912 17.6786C15.9497 17.2031 17.1017 16.712 18.2568 16.2291C19.376 15.7623 20.4891 15.2816 21.604 14.8052C21.5875 14.768 21.5715 14.7304 21.5551 14.6932H21.5556L21.7138 14.7581C21.677 14.7736 21.6407 14.7892 21.604 14.8052C21.8439 15.3533 22.0963 15.8971 22.3544 16.4591L18.932 17.9168L15.4807 19.3666C14.3304 19.8517 13.1697 20.3246 12.0159 20.8031L8.62294 22.1977L8.65191 22.269L8.55075 22.2275Z" fill="#0066CC"/>
<path d="M18.2517 6.16906L16.1941 7.04098C16.1737 7.04919 16.1504 7.04055 16.1405 7.02153L15.5539 5.90624L14.0253 9.34375C14.011 9.37617 13.9734 9.39044 13.9414 9.37617C13.9276 9.37012 13.9168 9.35888 13.9103 9.34634L12.7829 7.13089L11.2777 10.5157C11.2574 10.5611 11.2038 10.5818 11.1584 10.5615C11.1389 10.5528 11.1238 10.5377 11.1147 10.52L11.1143 10.5191L10.0133 8.35339L8.53055 11.6872C8.50418 11.7464 8.43545 11.7727 8.37623 11.7464C8.35072 11.7351 8.3317 11.7157 8.3196 11.6928L8.31917 11.6919L7.24451 9.57848L6.56323 11.1351C6.54897 11.168 6.52303 11.1922 6.49277 11.2052L6.49148 11.2056L4.43511 12.0766C4.36118 12.1082 4.27602 12.0736 4.2449 11.9997C4.21334 11.9258 4.24793 11.8406 4.32185 11.8095L4.32271 11.8091L6.33715 10.9752L7.11872 9.22703L7.11915 9.22617C7.14768 9.16176 7.22333 9.1328 7.28774 9.16176C7.31584 9.17429 7.33702 9.19591 7.34956 9.22141L8.41902 11.3668L9.91516 8.07673V8.07586C9.9385 8.02529 9.99815 8.00281 10.0492 8.02572C10.0708 8.03566 10.0876 8.05252 10.0976 8.07284L11.1913 10.2684L12.7103 6.92729C12.7272 6.88968 12.7712 6.87282 12.8084 6.88925C12.8249 6.8966 12.8374 6.90956 12.8447 6.92426L13.9644 9.16997L15.5067 5.77741C15.5175 5.75321 15.5456 5.7424 15.5699 5.75321C15.5802 5.75753 15.588 5.76574 15.5928 5.77482L16.1975 6.94847L18.2262 6.10811C18.2431 6.10119 18.2625 6.10941 18.2695 6.12627C18.2764 6.14269 18.2686 6.16215 18.2517 6.16906Z" fill="#0066CC"/>
<path d="M19.6579 9.52141C19.6575 9.52141 19.6566 9.52184 19.6562 9.52228L5.75266 15.2228C5.7358 15.2297 5.71635 15.2219 5.70943 15.2051C5.70252 15.1882 5.71073 15.1692 5.72715 15.1623L19.5438 9.25426C19.6177 9.22314 19.7029 9.25729 19.7344 9.33078C19.766 9.4047 19.7318 9.48986 19.6579 9.52141Z" fill="#0066CC"/>
<path d="M20.7589 12.1506C20.7584 12.1506 20.7576 12.151 20.7571 12.1514L6.85361 17.8519C6.83675 17.8589 6.8173 17.8511 6.81038 17.8342C6.80347 17.8174 6.81168 17.7983 6.82811 17.7914L20.6447 11.8834C20.7187 11.8523 20.8038 11.8864 20.8354 11.9599C20.8669 12.0338 20.8328 12.119 20.7589 12.1506Z" fill="#0066CC"/>
<path d="M22.6757 3.34742L27.2002 14.0235C27.2314 14.0973 27.197 14.1825 27.1231 14.2138C27.0493 14.245 26.9642 14.2106 26.9329 14.1367L26.9324 14.1356L22.4992 3.42134C22.479 3.37249 22.5022 3.31656 22.551 3.29633C22.5995 3.27627 22.6552 3.29913 22.6757 3.34742Z" fill="#0066CC"/>
<path d="M48.978 5.8621L44.496 18.4981H40.644L36.162 5.8621H39.438L42.57 15.4021L45.72 5.8621H48.978ZM59.7324 13.3141C59.7324 13.6021 59.7144 13.9021 59.6784 14.2141H52.7124C52.7604 14.8381 52.9584 15.3181 53.3064 15.6541C53.6664 15.9781 54.1044 16.1401 54.6204 16.1401C55.3884 16.1401 55.9224 15.8161 56.2224 15.1681H59.4984C59.3304 15.8281 59.0244 16.4221 58.5804 16.9501C58.1484 17.4781 57.6024 17.8921 56.9424 18.1921C56.2824 18.4921 55.5444 18.6421 54.7284 18.6421C53.7444 18.6421 52.8684 18.4321 52.1004 18.0121C51.3324 17.5921 50.7324 16.9921 50.3004 16.2121C49.8684 15.4321 49.6524 14.5201 49.6524 13.4761C49.6524 12.4321 49.8624 11.5201 50.2824 10.7401C50.7144 9.9601 51.3144 9.3601 52.0824 8.9401C52.8504 8.5201 53.7324 8.3101 54.7284 8.3101C55.7004 8.3101 56.5644 8.5141 57.3204 8.9221C58.0764 9.3301 58.6644 9.9121 59.0844 10.6681C59.5164 11.4241 59.7324 12.3061 59.7324 13.3141ZM56.5824 12.5041C56.5824 11.9761 56.4024 11.5561 56.0424 11.2441C55.6824 10.9321 55.2324 10.7761 54.6924 10.7761C54.1764 10.7761 53.7384 10.9261 53.3784 11.2261C53.0304 11.5261 52.8144 11.9521 52.7304 12.5041H56.5824ZM64.4342 10.1281C64.7942 9.5761 65.2442 9.1441 65.7842 8.8321C66.3242 8.5081 66.9242 8.3461 67.5842 8.3461V11.6041H66.7382C65.9702 11.6041 65.3942 11.7721 65.0102 12.1081C64.6262 12.4321 64.4342 13.0081 64.4342 13.8361V18.4981H61.3562V8.4541H64.4342V10.1281ZM70.6035 7.4101C70.0635 7.4101 69.6195 7.2541 69.2715 6.9421C68.9355 6.6181 68.7675 6.2221 68.7675 5.7541C68.7675 5.2741 68.9355 4.8781 69.2715 4.5661C69.6195 4.2421 70.0635 4.0801 70.6035 4.0801C71.1315 4.0801 71.5635 4.2421 71.8995 4.5661C72.2475 4.8781 72.4215 5.2741 72.4215 5.7541C72.4215 6.2221 72.2475 6.6181 71.8995 6.9421C71.5635 7.2541 71.1315 7.4101 70.6035 7.4101ZM72.1335 8.4541V18.4981H69.0555V8.4541H72.1335ZM79.404 11.0101H77.748V18.4981H74.67V11.0101H73.554V8.4541H74.67V8.1661C74.67 6.9301 75.024 5.9941 75.732 5.3581C76.44 4.7101 77.478 4.3861 78.846 4.3861C79.074 4.3861 79.242 4.3921 79.35 4.4041V7.0141C78.762 6.9781 78.348 7.0621 78.108 7.2661C77.868 7.4701 77.748 7.8361 77.748 8.3641V8.4541H79.404V11.0101ZM82.3984 7.4101C81.8584 7.4101 81.4144 7.2541 81.0664 6.9421C80.7304 6.6181 80.5624 6.2221 80.5624 5.7541C80.5624 5.2741 80.7304 4.8781 81.0664 4.5661C81.4144 4.2421 81.8584 4.0801 82.3984 4.0801C82.9264 4.0801 83.3584 4.2421 83.6944 4.5661C84.0424 4.8781 84.2164 5.2741 84.2164 5.7541C84.2164 6.2221 84.0424 6.6181 83.6944 6.9421C83.3584 7.2541 82.9264 7.4101 82.3984 7.4101ZM83.9284 8.4541V18.4981H80.8504V8.4541H83.9284ZM85.547 13.4761C85.547 12.4321 85.757 11.5201 86.177 10.7401C86.609 9.9601 87.203 9.3601 87.959 8.9401C88.727 8.5201 89.603 8.3101 90.587 8.3101C91.847 8.3101 92.897 8.6401 93.737 9.3001C94.589 9.9601 95.147 10.8901 95.411 12.0901H92.135C91.859 11.3221 91.325 10.9381 90.533 10.9381C89.969 10.9381 89.519 11.1601 89.183 11.6041C88.847 12.0361 88.679 12.6601 88.679 13.4761C88.679 14.2921 88.847 14.9221 89.183 15.3661C89.519 15.7981 89.969 16.0141 90.533 16.0141C91.325 16.0141 91.859 15.6301 92.135 14.8621H95.411C95.147 16.0381 94.589 16.9621 93.737 17.6341C92.885 18.3061 91.835 18.6421 90.587 18.6421C89.603 18.6421 88.727 18.4321 87.959 18.0121C87.203 17.5921 86.609 16.9921 86.177 16.2121C85.757 15.4321 85.547 14.5201 85.547 13.4761ZM96.4454 13.4581C96.4454 12.4261 96.6374 11.5201 97.0214 10.7401C97.4174 9.9601 97.9514 9.3601 98.6234 8.9401C99.2954 8.5201 100.045 8.3101 100.873 8.3101C101.581 8.3101 102.199 8.4541 102.727 8.7421C103.267 9.0301 103.681 9.4081 103.969 9.8761V8.4541H107.047V18.4981H103.969V17.0761C103.669 17.5441 103.249 17.9221 102.709 18.2101C102.181 18.4981 101.563 18.6421 100.855 18.6421C100.039 18.6421 99.2954 18.4321 98.6234 18.0121C97.9514 17.5801 97.4174 16.9741 97.0214 16.1941C96.6374 15.4021 96.4454 14.4901 96.4454 13.4581ZM103.969 13.4761C103.969 12.7081 103.753 12.1021 103.321 11.6581C102.901 11.2141 102.385 10.9921 101.773 10.9921C101.161 10.9921 100.639 11.2141 100.207 11.6581C99.7874 12.0901 99.5774 12.6901 99.5774 13.4581C99.5774 14.2261 99.7874 14.8381 100.207 15.2941C100.639 15.7381 101.161 15.9601 101.773 15.9601C102.385 15.9601 102.901 15.7381 103.321 15.2941C103.753 14.8501 103.969 14.2441 103.969 13.4761ZM118.364 5.8621V8.3281H115.016V18.4981H111.938V8.3281H108.59V5.8621H118.364ZM121.457 7.4101C120.917 7.4101 120.473 7.2541 120.125 6.9421C119.789 6.6181 119.621 6.2221 119.621 5.7541C119.621 5.2741 119.789 4.8781 120.125 4.5661C120.473 4.2421 120.917 4.0801 121.457 4.0801C121.985 4.0801 122.417 4.2421 122.753 4.5661C123.101 4.8781 123.275 5.2741 123.275 5.7541C123.275 6.2221 123.101 6.6181 122.753 6.9421C122.417 7.2541 121.985 7.4101 121.457 7.4101ZM122.987 8.4541V18.4981H119.909V8.4541H122.987ZM124.606 13.4761C124.606 12.4321 124.816 11.5201 125.236 10.7401C125.668 9.9601 126.262 9.3601 127.018 8.9401C127.786 8.5201 128.662 8.3101 129.646 8.3101C130.906 8.3101 131.956 8.6401 132.796 9.3001C133.648 9.9601 134.206 10.8901 134.47 12.0901H131.194C130.918 11.3221 130.384 10.9381 129.592 10.9381C129.028 10.9381 128.578 11.1601 128.242 11.6041C127.906 12.0361 127.738 12.6601 127.738 13.4761C127.738 14.2921 127.906 14.9221 128.242 15.3661C128.578 15.7981 129.028 16.0141 129.592 16.0141C130.384 16.0141 130.918 15.6301 131.194 14.8621H134.47C134.206 16.0381 133.648 16.9621 132.796 17.6341C131.944 18.3061 130.894 18.6421 129.646 18.6421C128.662 18.6421 127.786 18.4321 127.018 18.0121C126.262 17.5921 125.668 16.9921 125.236 16.2121C124.816 15.4321 124.606 14.5201 124.606 13.4761ZM142.254 18.4981L139.194 14.2861V18.4981H136.116V5.1781H139.194V12.5401L142.236 8.4541H146.034L141.858 13.4941L146.07 18.4981H142.254ZM156.711 13.3141C156.711 13.6021 156.693 13.9021 156.657 14.2141H149.691C149.739 14.8381 149.937 15.3181 150.285 15.6541C150.645 15.9781 151.083 16.1401 151.599 16.1401C152.367 16.1401 152.901 15.8161 153.201 15.1681H156.477C156.309 15.8281 156.003 16.4221 155.559 16.9501C155.127 17.4781 154.581 17.8921 153.921 18.1921C153.261 18.4921 152.523 18.6421 151.707 18.6421C150.723 18.6421 149.847 18.4321 149.079 18.0121C148.311 17.5921 147.711 16.9921 147.279 16.2121C146.847 15.4321 146.631 14.5201 146.631 13.4761C146.631 12.4321 146.841 11.5201 147.261 10.7401C147.693 9.9601 148.293 9.3601 149.061 8.9401C149.829 8.5201 150.711 8.3101 151.707 8.3101C152.679 8.3101 153.543 8.5141 154.299 8.9221C155.055 9.3301 155.643 9.9121 156.063 10.6681C156.495 11.4241 156.711 12.3061 156.711 13.3141ZM153.561 12.5041C153.561 11.9761 153.381 11.5561 153.021 11.2441C152.661 10.9321 152.211 10.7761 151.671 10.7761C151.155 10.7761 150.717 10.9261 150.357 11.2261C150.009 11.5261 149.793 11.9521 149.709 12.5041H153.561ZM163.933 15.8881V18.4981H162.367C161.251 18.4981 160.381 18.2281 159.757 17.6881C159.133 17.1361 158.821 16.2421 158.821 15.0061V11.0101H157.597V8.4541H158.821V6.0061H161.899V8.4541H163.915V11.0101H161.899V15.0421C161.899 15.3421 161.971 15.5581 162.115 15.6901C162.259 15.8221 162.499 15.8881 162.835 15.8881H163.933Z" fill="#DFDEE0"/>
</svg>
